<svg xmlns="http://www.w3.org/2000/svg" width="1254" height="1254" viewBox="0 0 1254 1254">
  <path d="M 625 882 L 624 883 L 620 883 L 619 884 L 618 884 L 616 886 L 615 886 L 613 888 L 613 889 L 611 891 L 611 892 L 610 893 L 610 894 L 609 895 L 609 899 L 608 900 L 608 909 L 609 910 L 609 919 L 610 920 L 610 927 L 611 928 L 611 934 L 612 935 L 612 942 L 613 943 L 613 950 L 614 951 L 614 961 L 615 962 L 615 994 L 614 995 L 614 1004 L 613 1005 L 613 1012 L 612 1013 L 612 1017 L 611 1018 L 611 1022 L 610 1023 L 610 1028 L 609 1029 L 609 1032 L 608 1033 L 608 1035 L 607 1036 L 607 1038 L 606 1039 L 606 1041 L 605 1042 L 605 1044 L 604 1045 L 604 1047 L 603 1048 L 603 1050 L 602 1051 L 602 1053 L 601 1054 L 601 1056 L 600 1057 L 600 1058 L 599 1059 L 599 1060 L 598 1061 L 598 1062 L 597 1063 L 597 1065 L 596 1066 L 596 1068 L 595 1069 L 595 1070 L 594 1071 L 594 1073 L 593 1074 L 593 1075 L 592 1076 L 592 1077 L 591 1078 L 591 1080 L 590 1081 L 590 1082 L 589 1083 L 589 1084 L 588 1085 L 588 1087 L 587 1088 L 587 1089 L 586 1090 L 586 1091 L 585 1092 L 585 1093 L 584 1094 L 584 1095 L 583 1096 L 583 1097 L 582 1098 L 582 1099 L 581 1100 L 581 1102 L 580 1103 L 580 1104 L 579 1105 L 579 1107 L 578 1108 L 578 1109 L 577 1110 L 577 1112 L 576 1113 L 576 1114 L 575 1115 L 575 1117 L 574 1118 L 574 1121 L 573 1122 L 573 1124 L 572 1125 L 572 1127 L 571 1128 L 571 1131 L 570 1132 L 570 1135 L 569 1136 L 569 1140 L 568 1141 L 568 1153 L 567 1154 L 567 1160 L 568 1161 L 568 1169 L 569 1170 L 569 1173 L 570 1174 L 570 1177 L 571 1178 L 571 1180 L 572 1181 L 572 1182 L 573 1183 L 573 1185 L 574 1186 L 574 1187 L 575 1188 L 575 1189 L 576 1190 L 576 1191 L 577 1192 L 577 1193 L 579 1195 L 579 1196 L 581 1198 L 581 1199 L 592 1210 L 593 1210 L 596 1213 L 597 1213 L 599 1215 L 600 1215 L 601 1216 L 602 1216 L 603 1217 L 604 1217 L 605 1218 L 607 1218 L 608 1219 L 609 1219 L 610 1220 L 613 1220 L 614 1221 L 617 1221 L 618 1222 L 636 1222 L 637 1221 L 641 1221 L 642 1220 L 644 1220 L 645 1219 L 647 1219 L 648 1218 L 649 1218 L 650 1217 L 651 1217 L 652 1216 L 653 1216 L 654 1215 L 655 1215 L 656 1214 L 657 1214 L 659 1212 L 660 1212 L 664 1208 L 665 1208 L 671 1202 L 671 1201 L 674 1198 L 674 1197 L 676 1195 L 676 1194 L 677 1193 L 677 1192 L 679 1190 L 679 1189 L 680 1188 L 680 1187 L 681 1186 L 681 1184 L 682 1183 L 682 1182 L 683 1181 L 683 1178 L 684 1177 L 684 1174 L 685 1173 L 685 1169 L 686 1168 L 686 1143 L 685 1142 L 685 1137 L 684 1136 L 684 1132 L 683 1131 L 683 1128 L 682 1127 L 682 1124 L 681 1123 L 681 1120 L 680 1119 L 680 1116 L 679 1115 L 679 1113 L 678 1112 L 678 1110 L 677 1109 L 677 1107 L 676 1106 L 676 1104 L 675 1103 L 675 1101 L 674 1100 L 674 1098 L 673 1097 L 673 1095 L 672 1094 L 672 1093 L 671 1092 L 671 1090 L 670 1089 L 670 1087 L 669 1086 L 669 1085 L 668 1084 L 668 1082 L 667 1081 L 667 1080 L 666 1079 L 666 1077 L 665 1076 L 665 1075 L 664 1074 L 664 1072 L 663 1071 L 663 1070 L 662 1069 L 662 1067 L 661 1066 L 661 1064 L 660 1063 L 660 1062 L 659 1061 L 659 1059 L 658 1058 L 658 1056 L 657 1055 L 657 1053 L 656 1052 L 656 1050 L 655 1049 L 655 1047 L 654 1046 L 654 1044 L 653 1043 L 653 1042 L 652 1041 L 652 1038 L 651 1037 L 651 1035 L 650 1034 L 650 1032 L 649 1031 L 649 1028 L 648 1027 L 648 1024 L 647 1023 L 647 1020 L 646 1019 L 646 1015 L 645 1014 L 645 1010 L 644 1009 L 644 1005 L 643 1004 L 643 998 L 642 997 L 642 987 L 641 986 L 641 970 L 640 969 L 641 968 L 641 947 L 642 946 L 642 934 L 643 933 L 643 926 L 644 925 L 644 920 L 645 919 L 645 912 L 646 911 L 646 897 L 645 896 L 645 894 L 644 893 L 644 892 L 642 890 L 642 889 L 638 885 L 637 885 L 636 884 L 635 884 L 634 883 L 630 883 L 629 882 Z M 701 871 L 700 872 L 699 872 L 698 873 L 697 873 L 696 874 L 695 874 L 690 879 L 690 880 L 689 881 L 689 882 L 688 883 L 688 886 L 687 887 L 687 893 L 688 894 L 688 897 L 689 898 L 689 899 L 690 900 L 690 902 L 691 903 L 691 904 L 692 905 L 692 907 L 693 908 L 693 909 L 694 910 L 694 911 L 695 912 L 695 913 L 697 915 L 697 916 L 698 917 L 698 918 L 700 920 L 700 921 L 701 922 L 701 924 L 702 925 L 702 926 L 703 927 L 703 928 L 704 929 L 704 930 L 705 931 L 705 932 L 706 933 L 706 934 L 707 935 L 707 936 L 708 937 L 708 938 L 709 939 L 709 940 L 710 941 L 710 942 L 711 943 L 711 945 L 712 946 L 712 947 L 713 948 L 713 949 L 714 950 L 714 952 L 715 953 L 715 954 L 716 955 L 716 957 L 717 958 L 717 960 L 718 961 L 718 963 L 719 964 L 719 965 L 720 966 L 720 968 L 721 969 L 721 971 L 722 972 L 722 975 L 723 976 L 723 979 L 724 980 L 724 983 L 725 984 L 725 987 L 726 988 L 726 991 L 727 992 L 727 996 L 728 997 L 728 1001 L 729 1002 L 729 1008 L 730 1009 L 730 1016 L 731 1017 L 731 1030 L 732 1031 L 732 1073 L 731 1074 L 731 1120 L 732 1121 L 732 1128 L 733 1129 L 733 1132 L 734 1133 L 734 1136 L 735 1137 L 735 1139 L 736 1140 L 736 1143 L 737 1144 L 737 1145 L 738 1146 L 738 1148 L 739 1149 L 739 1150 L 740 1151 L 740 1153 L 741 1154 L 741 1155 L 743 1157 L 743 1158 L 744 1159 L 744 1160 L 746 1162 L 746 1163 L 749 1166 L 749 1167 L 757 1175 L 758 1175 L 762 1179 L 763 1179 L 764 1180 L 765 1180 L 767 1182 L 768 1182 L 769 1183 L 770 1183 L 771 1184 L 773 1184 L 774 1185 L 775 1185 L 776 1186 L 779 1186 L 780 1187 L 783 1187 L 784 1188 L 801 1188 L 802 1187 L 805 1187 L 806 1186 L 809 1186 L 810 1185 L 811 1185 L 812 1184 L 814 1184 L 815 1183 L 816 1183 L 817 1182 L 818 1182 L 820 1180 L 821 1180 L 823 1178 L 824 1178 L 827 1175 L 828 1175 L 833 1170 L 833 1169 L 837 1165 L 837 1164 L 839 1162 L 839 1161 L 840 1160 L 840 1159 L 841 1158 L 841 1157 L 842 1156 L 842 1154 L 843 1153 L 843 1151 L 844 1150 L 844 1148 L 845 1147 L 845 1142 L 846 1141 L 846 1125 L 845 1124 L 845 1119 L 844 1118 L 844 1116 L 843 1115 L 843 1113 L 842 1112 L 842 1110 L 841 1109 L 841 1108 L 840 1107 L 840 1105 L 839 1104 L 839 1103 L 838 1102 L 838 1101 L 837 1100 L 837 1099 L 836 1098 L 836 1097 L 834 1095 L 834 1094 L 833 1093 L 833 1092 L 831 1090 L 831 1089 L 830 1088 L 830 1087 L 827 1084 L 827 1083 L 824 1080 L 824 1079 L 820 1075 L 820 1074 L 817 1071 L 817 1070 L 815 1068 L 816 1067 L 815 1068 L 811 1064 L 811 1063 L 805 1057 L 805 1056 L 801 1052 L 801 1051 L 796 1046 L 796 1045 L 791 1040 L 791 1039 L 786 1034 L 786 1033 L 783 1030 L 783 1029 L 779 1025 L 779 1024 L 777 1022 L 777 1021 L 774 1018 L 774 1017 L 772 1015 L 772 1014 L 770 1012 L 770 1011 L 768 1009 L 768 1008 L 766 1006 L 766 1005 L 764 1003 L 764 1002 L 763 1001 L 763 1000 L 761 998 L 761 997 L 760 996 L 760 995 L 758 993 L 758 992 L 757 991 L 757 990 L 756 989 L 756 988 L 755 987 L 755 986 L 754 985 L 754 984 L 753 983 L 753 982 L 752 981 L 752 980 L 751 979 L 751 978 L 750 977 L 750 976 L 749 975 L 749 974 L 748 973 L 748 971 L 747 970 L 747 969 L 746 968 L 746 967 L 745 966 L 745 964 L 744 963 L 744 961 L 743 960 L 743 959 L 742 958 L 742 956 L 741 955 L 741 953 L 740 952 L 740 950 L 739 949 L 739 946 L 738 945 L 738 943 L 737 942 L 737 939 L 736 938 L 736 935 L 735 934 L 735 931 L 734 930 L 734 927 L 733 926 L 733 922 L 732 921 L 732 917 L 731 916 L 731 912 L 730 911 L 730 907 L 729 906 L 729 901 L 728 900 L 728 895 L 727 894 L 727 891 L 726 890 L 726 887 L 725 886 L 725 885 L 724 884 L 724 883 L 723 882 L 723 881 L 722 880 L 722 879 L 717 874 L 716 874 L 715 873 L 714 873 L 713 872 L 712 872 L 711 871 Z M 555 872 L 553 872 L 552 871 L 543 871 L 542 872 L 541 872 L 540 873 L 539 873 L 538 874 L 537 874 L 531 880 L 531 881 L 530 882 L 530 883 L 529 884 L 529 886 L 528 887 L 528 889 L 527 890 L 527 893 L 526 894 L 526 898 L 525 899 L 525 902 L 524 903 L 524 908 L 523 909 L 523 912 L 522 913 L 522 918 L 521 919 L 521 922 L 520 923 L 520 927 L 519 928 L 519 931 L 518 932 L 518 934 L 517 935 L 517 938 L 516 939 L 516 941 L 515 942 L 515 944 L 514 945 L 514 948 L 513 949 L 513 951 L 512 952 L 512 954 L 511 955 L 511 957 L 510 958 L 510 959 L 509 960 L 509 962 L 508 963 L 508 964 L 507 965 L 507 967 L 506 968 L 506 969 L 505 970 L 505 972 L 504 973 L 504 974 L 503 975 L 503 976 L 502 977 L 502 978 L 501 979 L 501 980 L 500 981 L 500 982 L 499 983 L 499 984 L 498 985 L 498 986 L 497 987 L 497 988 L 496 989 L 496 990 L 495 991 L 495 992 L 493 994 L 493 995 L 492 996 L 492 997 L 491 998 L 491 999 L 489 1001 L 489 1002 L 487 1004 L 487 1005 L 486 1006 L 486 1007 L 484 1009 L 484 1010 L 482 1012 L 482 1013 L 480 1015 L 480 1016 L 478 1018 L 478 1019 L 476 1021 L 476 1022 L 474 1024 L 474 1025 L 470 1029 L 470 1030 L 467 1033 L 467 1034 L 464 1037 L 464 1038 L 460 1042 L 460 1043 L 455 1048 L 455 1049 L 452 1052 L 452 1053 L 448 1057 L 448 1058 L 442 1064 L 442 1065 L 438 1069 L 438 1070 L 434 1074 L 434 1075 L 430 1079 L 430 1080 L 427 1083 L 427 1084 L 425 1086 L 425 1087 L 423 1089 L 423 1090 L 421 1092 L 421 1093 L 419 1095 L 419 1096 L 418 1097 L 418 1098 L 417 1099 L 417 1100 L 416 1101 L 416 1102 L 415 1103 L 415 1104 L 414 1105 L 414 1106 L 413 1107 L 413 1109 L 412 1110 L 412 1111 L 411 1112 L 411 1114 L 410 1115 L 410 1118 L 409 1119 L 409 1124 L 408 1125 L 408 1143 L 409 1144 L 409 1148 L 410 1149 L 410 1152 L 411 1153 L 411 1155 L 413 1157 L 413 1158 L 414 1159 L 414 1160 L 415 1161 L 415 1162 L 416 1163 L 416 1164 L 418 1166 L 418 1167 L 428 1177 L 429 1177 L 431 1179 L 432 1179 L 434 1181 L 435 1181 L 437 1183 L 439 1183 L 440 1184 L 441 1184 L 442 1185 L 444 1185 L 445 1186 L 448 1186 L 449 1187 L 452 1187 L 453 1188 L 469 1188 L 470 1187 L 473 1187 L 474 1186 L 477 1186 L 478 1185 L 480 1185 L 481 1184 L 482 1184 L 483 1183 L 484 1183 L 485 1182 L 486 1182 L 488 1180 L 489 1180 L 491 1178 L 492 1178 L 494 1176 L 495 1176 L 505 1166 L 505 1165 L 508 1162 L 508 1161 L 509 1160 L 509 1159 L 511 1157 L 511 1156 L 512 1155 L 512 1154 L 513 1153 L 513 1152 L 514 1151 L 514 1150 L 515 1149 L 515 1148 L 516 1147 L 516 1145 L 517 1144 L 517 1142 L 518 1141 L 518 1139 L 519 1138 L 519 1135 L 520 1134 L 520 1131 L 521 1130 L 521 1126 L 522 1125 L 522 1117 L 523 1116 L 523 1078 L 522 1077 L 522 1027 L 523 1026 L 523 1013 L 524 1012 L 524 1006 L 525 1005 L 525 1000 L 526 999 L 526 994 L 527 993 L 527 989 L 528 988 L 528 984 L 529 983 L 529 981 L 530 980 L 530 976 L 531 975 L 531 973 L 532 972 L 532 969 L 533 968 L 533 966 L 534 965 L 534 963 L 535 962 L 535 960 L 536 959 L 536 958 L 537 957 L 537 955 L 538 954 L 538 953 L 539 952 L 539 950 L 540 949 L 540 947 L 541 946 L 541 945 L 542 944 L 542 943 L 543 942 L 543 941 L 544 940 L 544 939 L 545 938 L 545 936 L 546 935 L 546 934 L 547 933 L 547 932 L 548 931 L 548 930 L 549 929 L 549 928 L 550 927 L 550 926 L 551 925 L 551 924 L 553 922 L 553 921 L 554 920 L 554 919 L 555 918 L 555 917 L 556 916 L 556 915 L 557 914 L 557 913 L 559 911 L 559 910 L 560 909 L 560 908 L 561 907 L 561 905 L 562 904 L 562 903 L 563 902 L 563 901 L 564 900 L 564 899 L 565 898 L 565 895 L 566 894 L 566 885 L 565 884 L 565 882 L 564 881 L 564 880 L 563 879 L 563 878 L 559 874 L 558 874 L 557 873 L 556 873 Z M 771 840 L 768 843 L 768 844 L 766 846 L 766 848 L 765 849 L 765 860 L 766 861 L 766 863 L 767 864 L 767 865 L 769 867 L 769 868 L 772 871 L 772 872 L 781 881 L 781 882 L 790 891 L 790 892 L 797 899 L 797 900 L 803 906 L 803 907 L 805 909 L 805 910 L 809 914 L 809 915 L 813 919 L 813 920 L 815 922 L 815 923 L 817 925 L 817 926 L 819 928 L 819 929 L 821 931 L 821 932 L 822 933 L 822 934 L 824 936 L 824 937 L 825 938 L 825 939 L 827 941 L 827 942 L 828 943 L 828 944 L 829 945 L 829 946 L 830 947 L 830 948 L 832 950 L 832 951 L 833 952 L 833 953 L 834 954 L 834 955 L 835 956 L 835 957 L 836 958 L 836 959 L 837 960 L 837 962 L 839 964 L 839 965 L 840 966 L 840 967 L 841 968 L 841 969 L 842 970 L 842 972 L 843 973 L 843 974 L 844 975 L 844 977 L 845 978 L 845 979 L 846 980 L 846 981 L 847 982 L 847 983 L 848 984 L 848 986 L 849 987 L 849 988 L 850 989 L 850 991 L 851 992 L 851 994 L 852 995 L 852 997 L 853 998 L 853 999 L 854 1000 L 854 1002 L 855 1003 L 855 1004 L 856 1005 L 856 1007 L 857 1008 L 857 1010 L 858 1011 L 858 1013 L 859 1014 L 859 1017 L 860 1018 L 860 1020 L 861 1021 L 861 1023 L 862 1024 L 862 1026 L 863 1027 L 863 1029 L 864 1030 L 864 1032 L 865 1033 L 865 1035 L 866 1036 L 866 1038 L 867 1039 L 867 1041 L 868 1042 L 868 1044 L 869 1045 L 869 1046 L 870 1047 L 870 1049 L 871 1050 L 871 1051 L 872 1052 L 872 1054 L 873 1055 L 873 1057 L 874 1058 L 874 1060 L 875 1061 L 875 1062 L 876 1063 L 876 1064 L 877 1065 L 877 1067 L 878 1068 L 878 1069 L 879 1070 L 879 1071 L 880 1072 L 880 1073 L 881 1074 L 881 1075 L 882 1076 L 882 1077 L 883 1078 L 883 1079 L 885 1081 L 885 1082 L 886 1083 L 886 1084 L 888 1086 L 888 1087 L 889 1088 L 889 1089 L 892 1092 L 892 1093 L 900 1101 L 900 1102 L 901 1103 L 902 1103 L 906 1107 L 907 1107 L 910 1110 L 911 1110 L 912 1111 L 913 1111 L 914 1112 L 915 1112 L 916 1113 L 917 1113 L 918 1114 L 919 1114 L 920 1115 L 922 1115 L 923 1116 L 925 1116 L 926 1117 L 930 1117 L 931 1118 L 948 1118 L 949 1117 L 953 1117 L 954 1116 L 956 1116 L 957 1115 L 958 1115 L 959 1114 L 960 1114 L 961 1113 L 962 1113 L 963 1112 L 964 1112 L 965 1111 L 966 1111 L 967 1110 L 968 1110 L 972 1106 L 973 1106 L 978 1101 L 978 1100 L 981 1097 L 981 1096 L 983 1094 L 983 1093 L 984 1092 L 984 1091 L 985 1090 L 985 1089 L 986 1088 L 986 1087 L 987 1086 L 987 1084 L 988 1083 L 988 1080 L 989 1079 L 989 1061 L 988 1060 L 988 1057 L 987 1056 L 987 1054 L 986 1053 L 986 1051 L 985 1050 L 985 1049 L 984 1048 L 984 1046 L 982 1044 L 982 1043 L 981 1042 L 981 1041 L 979 1039 L 979 1038 L 977 1036 L 977 1035 L 975 1033 L 975 1032 L 969 1026 L 969 1025 L 955 1011 L 954 1011 L 949 1006 L 948 1006 L 943 1001 L 942 1001 L 939 998 L 938 998 L 935 995 L 934 995 L 931 992 L 930 992 L 927 989 L 926 989 L 924 987 L 923 987 L 921 985 L 920 985 L 917 982 L 916 982 L 913 979 L 912 979 L 910 977 L 909 977 L 906 974 L 905 974 L 903 972 L 902 972 L 899 969 L 898 969 L 894 965 L 893 965 L 890 962 L 889 962 L 885 958 L 884 958 L 878 952 L 877 952 L 868 943 L 867 943 L 853 929 L 853 928 L 846 921 L 846 920 L 841 915 L 841 914 L 838 911 L 838 910 L 835 907 L 835 906 L 833 904 L 833 903 L 831 901 L 831 900 L 829 898 L 829 897 L 826 894 L 826 893 L 825 892 L 825 891 L 823 889 L 823 888 L 822 887 L 822 886 L 821 885 L 821 884 L 820 883 L 820 882 L 819 881 L 819 880 L 818 879 L 818 878 L 817 877 L 817 876 L 816 875 L 816 874 L 815 873 L 815 872 L 814 871 L 814 870 L 813 869 L 813 868 L 812 867 L 812 866 L 810 864 L 810 862 L 809 861 L 809 860 L 808 859 L 808 858 L 807 857 L 807 856 L 806 855 L 806 854 L 805 853 L 805 852 L 803 850 L 803 849 L 802 848 L 802 847 L 800 845 L 800 844 L 795 839 L 794 839 L 793 838 L 792 838 L 791 837 L 790 837 L 789 836 L 778 836 L 777 837 L 776 837 L 775 838 L 774 838 L 772 840 Z M 482 838 L 481 838 L 480 837 L 479 837 L 478 836 L 466 836 L 465 837 L 464 837 L 463 838 L 462 838 L 461 839 L 460 839 L 455 844 L 455 845 L 453 847 L 453 848 L 452 849 L 452 850 L 450 852 L 450 853 L 449 854 L 449 855 L 448 856 L 448 857 L 447 858 L 447 859 L 446 860 L 446 861 L 445 862 L 445 863 L 444 864 L 444 865 L 443 866 L 443 867 L 442 868 L 442 869 L 440 871 L 439 871 L 440 872 L 439 873 L 439 874 L 438 875 L 438 876 L 437 877 L 437 878 L 436 879 L 436 880 L 435 881 L 435 882 L 433 884 L 433 885 L 432 886 L 432 887 L 431 888 L 431 889 L 429 891 L 429 892 L 427 894 L 427 895 L 425 897 L 425 898 L 422 901 L 422 902 L 420 904 L 420 905 L 417 908 L 417 909 L 414 912 L 414 913 L 408 919 L 408 920 L 400 928 L 400 929 L 398 931 L 397 931 L 383 945 L 382 945 L 375 952 L 374 952 L 369 957 L 368 957 L 365 960 L 364 960 L 361 963 L 360 963 L 358 965 L 357 965 L 353 969 L 352 969 L 350 971 L 349 971 L 347 973 L 346 973 L 343 976 L 342 976 L 339 979 L 338 979 L 336 981 L 335 981 L 332 984 L 331 984 L 329 986 L 328 986 L 326 988 L 325 988 L 321 992 L 320 992 L 317 995 L 316 995 L 312 999 L 311 999 L 308 1002 L 307 1002 L 299 1010 L 298 1010 L 284 1024 L 284 1025 L 278 1031 L 278 1032 L 275 1035 L 275 1036 L 274 1037 L 274 1038 L 272 1040 L 272 1041 L 271 1042 L 271 1043 L 270 1044 L 270 1045 L 269 1046 L 269 1047 L 268 1048 L 268 1049 L 267 1050 L 267 1052 L 266 1053 L 266 1055 L 265 1056 L 265 1060 L 264 1061 L 264 1076 L 265 1077 L 265 1081 L 266 1082 L 266 1084 L 267 1085 L 267 1086 L 268 1087 L 268 1089 L 269 1090 L 269 1091 L 271 1093 L 271 1094 L 272 1095 L 272 1096 L 274 1098 L 274 1099 L 282 1107 L 283 1107 L 285 1109 L 286 1109 L 288 1111 L 289 1111 L 290 1112 L 291 1112 L 292 1113 L 293 1113 L 294 1114 L 296 1114 L 297 1115 L 298 1115 L 299 1116 L 302 1116 L 303 1117 L 310 1117 L 311 1118 L 317 1118 L 318 1117 L 325 1117 L 326 1116 L 329 1116 L 330 1115 L 332 1115 L 333 1114 L 334 1114 L 335 1113 L 337 1113 L 338 1112 L 339 1112 L 341 1110 L 342 1110 L 343 1109 L 344 1109 L 346 1107 L 347 1107 L 350 1104 L 351 1104 L 359 1096 L 359 1095 L 364 1090 L 364 1089 L 366 1087 L 366 1086 L 368 1084 L 368 1083 L 369 1082 L 369 1081 L 370 1080 L 370 1079 L 372 1077 L 372 1076 L 373 1075 L 373 1074 L 374 1073 L 374 1072 L 375 1071 L 375 1069 L 376 1068 L 376 1067 L 377 1066 L 377 1065 L 378 1064 L 378 1063 L 379 1062 L 379 1060 L 380 1059 L 380 1058 L 381 1057 L 381 1055 L 382 1054 L 382 1052 L 383 1051 L 383 1049 L 384 1048 L 384 1047 L 385 1046 L 385 1044 L 386 1043 L 386 1041 L 387 1040 L 387 1038 L 388 1037 L 388 1034 L 389 1033 L 389 1031 L 390 1030 L 390 1028 L 391 1027 L 391 1025 L 392 1024 L 392 1022 L 393 1021 L 393 1019 L 394 1018 L 394 1015 L 395 1014 L 395 1012 L 396 1011 L 396 1009 L 397 1008 L 397 1006 L 398 1005 L 398 1003 L 399 1002 L 399 1000 L 400 999 L 400 998 L 401 997 L 401 995 L 402 994 L 402 992 L 403 991 L 403 990 L 404 989 L 404 987 L 405 986 L 405 984 L 406 983 L 406 982 L 407 981 L 407 980 L 408 979 L 408 978 L 409 977 L 409 975 L 410 974 L 410 973 L 411 972 L 411 970 L 412 969 L 412 968 L 413 967 L 413 966 L 414 965 L 414 964 L 416 962 L 416 961 L 417 960 L 417 958 L 418 957 L 418 956 L 419 955 L 419 954 L 420 953 L 420 952 L 421 951 L 421 950 L 423 948 L 423 947 L 425 945 L 425 944 L 426 943 L 426 942 L 427 941 L 427 940 L 429 938 L 429 937 L 430 936 L 430 935 L 432 933 L 432 932 L 434 930 L 434 929 L 435 928 L 435 927 L 437 925 L 437 924 L 440 921 L 440 920 L 443 917 L 443 916 L 445 914 L 445 913 L 449 909 L 449 908 L 453 904 L 453 903 L 462 894 L 462 893 L 480 875 L 480 874 L 484 870 L 484 869 L 487 866 L 487 865 L 488 864 L 488 863 L 489 862 L 489 860 L 490 859 L 490 849 L 489 848 L 489 846 L 488 845 L 488 844 Z M 833 781 L 833 782 L 831 784 L 831 785 L 830 786 L 830 788 L 829 789 L 829 798 L 830 799 L 830 800 L 831 801 L 831 802 L 832 803 L 832 804 L 835 807 L 835 808 L 837 810 L 838 810 L 842 814 L 843 814 L 846 817 L 847 817 L 849 819 L 850 819 L 852 821 L 853 821 L 856 824 L 857 824 L 859 826 L 860 826 L 861 827 L 862 827 L 864 829 L 865 829 L 869 833 L 870 833 L 872 835 L 873 835 L 875 837 L 876 837 L 878 839 L 879 839 L 881 841 L 882 841 L 886 845 L 887 845 L 891 849 L 892 849 L 897 854 L 898 854 L 902 858 L 903 858 L 928 883 L 928 884 L 933 889 L 933 890 L 937 894 L 937 895 L 942 900 L 942 901 L 945 904 L 945 905 L 948 908 L 948 909 L 951 912 L 951 913 L 954 916 L 954 917 L 956 919 L 956 920 L 958 922 L 958 923 L 960 925 L 960 926 L 962 928 L 962 929 L 964 931 L 964 932 L 967 935 L 967 936 L 968 937 L 968 938 L 971 941 L 971 942 L 973 944 L 973 945 L 975 947 L 975 948 L 977 950 L 977 951 L 979 953 L 979 954 L 981 956 L 981 957 L 983 959 L 983 960 L 986 963 L 986 964 L 989 967 L 989 968 L 991 970 L 991 971 L 995 975 L 995 976 L 1004 985 L 1004 986 L 1008 990 L 1009 990 L 1014 995 L 1015 995 L 1018 998 L 1019 998 L 1020 999 L 1021 999 L 1023 1001 L 1024 1001 L 1026 1003 L 1027 1003 L 1028 1004 L 1029 1004 L 1030 1005 L 1031 1005 L 1032 1006 L 1034 1006 L 1035 1007 L 1037 1007 L 1038 1008 L 1040 1008 L 1041 1009 L 1044 1009 L 1045 1010 L 1049 1010 L 1050 1011 L 1063 1011 L 1064 1010 L 1068 1010 L 1069 1009 L 1072 1009 L 1073 1008 L 1075 1008 L 1076 1007 L 1077 1007 L 1078 1006 L 1079 1006 L 1080 1005 L 1081 1005 L 1082 1004 L 1083 1004 L 1084 1003 L 1085 1003 L 1087 1001 L 1088 1001 L 1091 998 L 1092 998 L 1099 991 L 1099 990 L 1101 988 L 1101 987 L 1103 985 L 1103 984 L 1104 983 L 1104 982 L 1105 981 L 1105 980 L 1106 979 L 1106 977 L 1107 976 L 1107 974 L 1108 973 L 1108 969 L 1109 968 L 1109 952 L 1108 951 L 1108 947 L 1107 946 L 1107 944 L 1106 943 L 1106 941 L 1105 940 L 1105 939 L 1104 938 L 1104 937 L 1103 936 L 1103 935 L 1102 934 L 1102 933 L 1100 931 L 1100 930 L 1097 927 L 1097 926 L 1090 919 L 1090 918 L 1089 918 L 1085 914 L 1084 914 L 1081 911 L 1080 911 L 1078 909 L 1077 909 L 1075 907 L 1074 907 L 1072 905 L 1071 905 L 1070 904 L 1069 904 L 1068 903 L 1067 903 L 1065 901 L 1064 901 L 1063 900 L 1062 900 L 1061 899 L 1059 899 L 1058 898 L 1057 898 L 1056 897 L 1055 897 L 1054 896 L 1053 896 L 1052 895 L 1051 895 L 1050 894 L 1048 894 L 1047 893 L 1046 893 L 1045 892 L 1043 892 L 1042 891 L 1041 891 L 1040 890 L 1037 890 L 1036 889 L 1034 889 L 1033 888 L 1032 888 L 1031 887 L 1029 887 L 1028 886 L 1027 886 L 1026 885 L 1023 885 L 1022 884 L 1021 884 L 1020 883 L 1017 883 L 1016 882 L 1014 882 L 1013 881 L 1011 881 L 1010 880 L 1008 880 L 1007 879 L 1005 879 L 1004 878 L 1002 878 L 1001 877 L 999 877 L 998 876 L 997 876 L 996 875 L 994 875 L 993 874 L 991 874 L 990 873 L 988 873 L 987 872 L 986 872 L 985 871 L 983 871 L 982 870 L 981 870 L 980 869 L 979 869 L 978 868 L 976 868 L 975 867 L 973 867 L 972 866 L 971 866 L 970 865 L 969 865 L 968 864 L 967 864 L 966 863 L 965 863 L 964 862 L 963 862 L 962 861 L 960 861 L 959 860 L 958 860 L 957 859 L 956 859 L 955 858 L 954 858 L 953 857 L 952 857 L 950 855 L 949 855 L 948 854 L 947 854 L 946 853 L 945 853 L 944 852 L 943 852 L 942 851 L 941 851 L 940 850 L 939 850 L 937 848 L 936 848 L 935 847 L 934 847 L 933 846 L 932 846 L 930 844 L 929 844 L 927 842 L 926 842 L 923 839 L 922 839 L 920 837 L 919 837 L 916 834 L 915 834 L 911 830 L 910 830 L 905 825 L 904 825 L 879 800 L 879 799 L 859 779 L 858 779 L 856 777 L 855 777 L 854 776 L 852 776 L 851 775 L 843 775 L 842 776 L 840 776 L 839 777 L 838 777 L 836 779 L 835 779 Z M 420 781 L 418 779 L 417 779 L 415 777 L 414 777 L 413 776 L 411 776 L 410 775 L 401 775 L 400 776 L 398 776 L 397 777 L 396 777 L 394 779 L 393 779 L 377 795 L 377 796 L 348 825 L 347 825 L 343 829 L 342 829 L 338 833 L 337 833 L 334 836 L 333 836 L 331 838 L 330 838 L 328 840 L 327 840 L 324 843 L 323 843 L 321 845 L 320 845 L 319 846 L 318 846 L 316 848 L 315 848 L 314 849 L 313 849 L 311 851 L 310 851 L 309 852 L 308 852 L 307 853 L 306 853 L 305 854 L 304 854 L 303 855 L 302 855 L 301 856 L 300 856 L 299 857 L 298 857 L 297 858 L 296 858 L 295 859 L 294 859 L 293 860 L 292 860 L 291 861 L 289 861 L 288 862 L 287 862 L 286 863 L 285 863 L 284 864 L 283 864 L 282 865 L 280 865 L 279 866 L 278 866 L 277 867 L 275 867 L 274 868 L 273 868 L 272 869 L 270 869 L 269 870 L 268 870 L 267 871 L 266 871 L 265 872 L 263 872 L 262 873 L 261 873 L 260 874 L 258 874 L 257 875 L 254 875 L 253 876 L 251 876 L 250 877 L 248 877 L 247 878 L 245 878 L 244 879 L 242 879 L 241 880 L 240 880 L 239 881 L 237 881 L 236 882 L 234 882 L 233 883 L 231 883 L 230 884 L 228 884 L 227 885 L 225 885 L 224 886 L 222 886 L 221 887 L 219 887 L 218 888 L 217 888 L 216 889 L 214 889 L 213 890 L 211 890 L 210 891 L 208 891 L 207 892 L 206 892 L 205 893 L 204 893 L 203 894 L 202 894 L 201 895 L 200 895 L 199 896 L 198 896 L 197 897 L 195 897 L 194 898 L 193 898 L 192 899 L 191 899 L 190 900 L 189 900 L 187 902 L 186 902 L 184 904 L 183 904 L 182 905 L 181 905 L 179 907 L 178 907 L 175 910 L 174 910 L 171 913 L 170 913 L 160 923 L 160 924 L 156 928 L 156 929 L 154 931 L 154 932 L 153 933 L 153 934 L 151 936 L 151 937 L 150 938 L 150 940 L 149 941 L 149 942 L 148 943 L 148 945 L 147 946 L 147 949 L 146 950 L 146 955 L 145 956 L 145 963 L 146 964 L 146 970 L 147 971 L 147 974 L 148 975 L 148 977 L 149 978 L 149 979 L 150 980 L 150 981 L 151 982 L 151 983 L 152 984 L 152 985 L 153 986 L 153 987 L 157 991 L 157 992 L 162 997 L 163 997 L 166 1000 L 167 1000 L 169 1002 L 170 1002 L 171 1003 L 172 1003 L 173 1004 L 174 1004 L 175 1005 L 176 1005 L 177 1006 L 179 1006 L 180 1007 L 182 1007 L 183 1008 L 187 1008 L 188 1009 L 205 1009 L 206 1008 L 209 1008 L 210 1007 L 213 1007 L 214 1006 L 216 1006 L 217 1005 L 219 1005 L 220 1004 L 221 1004 L 222 1003 L 223 1003 L 224 1002 L 225 1002 L 227 1000 L 228 1000 L 229 999 L 230 999 L 231 998 L 232 998 L 234 996 L 235 996 L 239 992 L 240 992 L 244 988 L 245 988 L 256 977 L 256 976 L 261 971 L 261 970 L 265 966 L 265 965 L 268 962 L 268 961 L 271 958 L 271 957 L 273 955 L 273 954 L 275 952 L 275 951 L 278 948 L 278 947 L 280 945 L 280 944 L 282 942 L 282 941 L 285 938 L 285 937 L 287 935 L 287 934 L 289 932 L 289 931 L 291 929 L 291 928 L 293 926 L 293 925 L 296 922 L 296 921 L 298 919 L 298 918 L 301 915 L 301 914 L 304 911 L 304 910 L 307 907 L 307 906 L 311 902 L 311 901 L 315 897 L 315 896 L 319 892 L 319 891 L 326 884 L 326 883 L 336 873 L 336 872 L 343 865 L 344 865 L 355 854 L 356 854 L 360 850 L 361 850 L 365 846 L 366 846 L 370 842 L 371 842 L 374 839 L 375 839 L 377 837 L 378 837 L 380 835 L 381 835 L 384 832 L 385 832 L 387 830 L 388 830 L 391 827 L 392 827 L 394 825 L 395 825 L 397 823 L 398 823 L 400 821 L 401 821 L 403 819 L 404 819 L 406 817 L 407 817 L 411 813 L 412 813 L 420 805 L 420 804 L 422 802 L 422 801 L 423 800 L 423 799 L 424 798 L 424 789 L 423 788 L 423 786 L 422 785 L 422 784 L 420 782 Z M 877 715 L 877 717 L 876 718 L 876 728 L 877 729 L 877 731 L 879 733 L 879 734 L 883 738 L 884 738 L 886 740 L 887 740 L 888 741 L 889 741 L 890 742 L 892 742 L 893 743 L 896 743 L 897 744 L 899 744 L 900 745 L 902 745 L 903 746 L 906 746 L 907 747 L 910 747 L 911 748 L 914 748 L 915 749 L 917 749 L 918 750 L 920 750 L 921 751 L 924 751 L 925 752 L 928 752 L 929 753 L 932 753 L 933 754 L 935 754 L 936 755 L 938 755 L 939 756 L 941 756 L 942 757 L 944 757 L 945 758 L 948 758 L 949 759 L 951 759 L 952 760 L 954 760 L 955 761 L 957 761 L 958 762 L 960 762 L 961 763 L 962 763 L 963 764 L 964 764 L 965 765 L 967 765 L 968 766 L 969 766 L 970 767 L 972 767 L 973 768 L 974 768 L 975 769 L 977 769 L 978 770 L 979 770 L 980 771 L 981 771 L 982 772 L 983 772 L 984 773 L 985 773 L 986 774 L 988 774 L 989 775 L 990 775 L 991 776 L 992 776 L 994 778 L 995 778 L 996 779 L 997 779 L 998 780 L 999 780 L 1000 781 L 1001 781 L 1003 783 L 1004 783 L 1005 784 L 1006 784 L 1008 786 L 1009 786 L 1010 787 L 1011 787 L 1013 789 L 1014 789 L 1016 791 L 1017 791 L 1019 793 L 1020 793 L 1023 796 L 1024 796 L 1026 798 L 1027 798 L 1031 802 L 1032 802 L 1035 805 L 1036 805 L 1040 809 L 1041 809 L 1045 813 L 1046 813 L 1051 818 L 1052 818 L 1055 821 L 1056 821 L 1061 826 L 1062 826 L 1068 832 L 1069 832 L 1072 835 L 1073 835 L 1076 838 L 1077 838 L 1080 841 L 1081 841 L 1083 843 L 1084 843 L 1087 846 L 1088 846 L 1089 847 L 1090 847 L 1092 849 L 1093 849 L 1094 850 L 1095 850 L 1096 851 L 1097 851 L 1098 852 L 1099 852 L 1100 853 L 1101 853 L 1103 855 L 1105 855 L 1106 856 L 1107 856 L 1108 857 L 1110 857 L 1111 858 L 1113 858 L 1114 859 L 1116 859 L 1117 860 L 1121 860 L 1122 861 L 1127 861 L 1128 862 L 1141 862 L 1142 861 L 1147 861 L 1148 860 L 1151 860 L 1152 859 L 1154 859 L 1155 858 L 1157 858 L 1158 857 L 1159 857 L 1160 856 L 1161 856 L 1162 855 L 1163 855 L 1164 854 L 1165 854 L 1167 852 L 1168 852 L 1170 850 L 1171 850 L 1178 843 L 1178 842 L 1182 838 L 1182 837 L 1184 835 L 1184 834 L 1185 833 L 1185 832 L 1186 831 L 1186 830 L 1187 829 L 1187 828 L 1188 827 L 1188 825 L 1189 824 L 1189 821 L 1190 820 L 1190 814 L 1191 813 L 1191 805 L 1190 804 L 1190 799 L 1189 798 L 1189 795 L 1188 794 L 1188 793 L 1187 792 L 1187 790 L 1186 789 L 1186 788 L 1185 787 L 1185 786 L 1184 785 L 1184 784 L 1183 783 L 1183 782 L 1181 780 L 1181 779 L 1178 776 L 1178 775 L 1169 766 L 1168 766 L 1166 764 L 1165 764 L 1163 762 L 1162 762 L 1160 760 L 1159 760 L 1158 759 L 1157 759 L 1156 758 L 1155 758 L 1154 757 L 1153 757 L 1152 756 L 1151 756 L 1150 755 L 1148 755 L 1147 754 L 1146 754 L 1145 753 L 1143 753 L 1142 752 L 1140 752 L 1139 751 L 1136 751 L 1135 750 L 1132 750 L 1131 749 L 1126 749 L 1125 748 L 1118 748 L 1117 747 L 1075 747 L 1074 748 L 1021 748 L 1020 747 L 1010 747 L 1009 746 L 1003 746 L 1002 745 L 997 745 L 996 744 L 992 744 L 991 743 L 988 743 L 987 742 L 984 742 L 983 741 L 980 741 L 979 740 L 976 740 L 975 739 L 972 739 L 971 738 L 969 738 L 968 737 L 966 737 L 965 736 L 963 736 L 962 735 L 960 735 L 959 734 L 958 734 L 957 733 L 955 733 L 954 732 L 953 732 L 952 731 L 950 731 L 949 730 L 948 730 L 947 729 L 946 729 L 945 728 L 944 728 L 943 727 L 942 727 L 941 726 L 939 726 L 937 724 L 935 724 L 933 722 L 932 722 L 931 721 L 930 721 L 929 720 L 928 720 L 927 719 L 926 719 L 925 718 L 924 718 L 923 717 L 922 717 L 921 716 L 920 716 L 918 714 L 917 714 L 916 713 L 915 713 L 914 712 L 913 712 L 911 710 L 910 710 L 909 709 L 908 709 L 907 708 L 906 708 L 905 707 L 904 707 L 903 706 L 901 706 L 900 705 L 888 705 L 887 706 L 886 706 L 884 708 L 883 708 L 879 712 L 879 713 Z M 377 717 L 376 716 L 376 715 L 375 714 L 375 713 L 373 711 L 373 710 L 372 709 L 371 709 L 368 706 L 366 706 L 365 705 L 363 705 L 362 704 L 356 704 L 355 705 L 352 705 L 351 706 L 349 706 L 348 707 L 347 707 L 346 708 L 345 708 L 343 710 L 342 710 L 341 711 L 340 711 L 339 712 L 338 712 L 337 713 L 336 713 L 334 715 L 333 715 L 332 716 L 331 716 L 330 717 L 329 717 L 328 718 L 327 718 L 326 719 L 325 719 L 324 720 L 323 720 L 322 721 L 321 721 L 319 723 L 317 723 L 316 724 L 315 724 L 314 725 L 313 725 L 312 726 L 311 726 L 310 727 L 309 727 L 308 728 L 307 728 L 306 729 L 305 729 L 304 730 L 303 730 L 302 731 L 300 731 L 299 732 L 297 732 L 296 733 L 295 733 L 294 734 L 292 734 L 291 735 L 288 735 L 287 736 L 285 736 L 284 737 L 282 737 L 281 738 L 279 738 L 278 739 L 276 739 L 275 740 L 272 740 L 271 741 L 267 741 L 266 742 L 263 742 L 262 743 L 258 743 L 257 744 L 252 744 L 251 745 L 246 745 L 245 746 L 239 746 L 238 747 L 222 747 L 221 748 L 190 748 L 189 747 L 159 747 L 158 746 L 151 746 L 150 747 L 136 747 L 135 748 L 128 748 L 127 749 L 123 749 L 122 750 L 119 750 L 118 751 L 115 751 L 114 752 L 112 752 L 111 753 L 109 753 L 108 754 L 107 754 L 106 755 L 105 755 L 104 756 L 102 756 L 101 757 L 100 757 L 99 758 L 98 758 L 97 759 L 96 759 L 94 761 L 93 761 L 91 763 L 90 763 L 88 765 L 87 765 L 75 777 L 75 778 L 72 781 L 72 782 L 71 783 L 71 784 L 70 785 L 70 786 L 69 787 L 69 788 L 68 789 L 68 790 L 67 791 L 67 792 L 66 793 L 66 795 L 65 796 L 65 798 L 64 799 L 64 804 L 63 805 L 63 815 L 64 816 L 64 820 L 65 821 L 65 824 L 66 825 L 66 827 L 67 828 L 67 829 L 68 830 L 68 832 L 70 834 L 70 835 L 72 837 L 72 838 L 74 840 L 74 841 L 83 850 L 84 850 L 86 852 L 87 852 L 89 854 L 90 854 L 91 855 L 92 855 L 93 856 L 94 856 L 95 857 L 97 857 L 98 858 L 100 858 L 101 859 L 104 859 L 105 860 L 111 860 L 112 861 L 124 861 L 125 860 L 131 860 L 132 859 L 135 859 L 136 858 L 138 858 L 139 857 L 141 857 L 142 856 L 143 856 L 144 855 L 145 855 L 146 854 L 148 854 L 149 853 L 150 853 L 151 852 L 152 852 L 153 851 L 154 851 L 156 849 L 157 849 L 158 848 L 159 848 L 160 847 L 161 847 L 163 845 L 164 845 L 166 843 L 167 843 L 169 841 L 170 841 L 172 839 L 173 839 L 176 836 L 177 836 L 180 833 L 181 833 L 184 830 L 185 830 L 188 827 L 189 827 L 193 823 L 194 823 L 198 819 L 199 819 L 201 817 L 202 817 L 207 812 L 208 812 L 211 809 L 212 809 L 215 806 L 216 806 L 219 803 L 220 803 L 222 801 L 223 801 L 226 798 L 227 798 L 229 796 L 230 796 L 232 794 L 233 794 L 235 792 L 236 792 L 238 790 L 239 790 L 241 788 L 242 788 L 243 787 L 244 787 L 246 785 L 247 785 L 248 784 L 249 784 L 251 782 L 252 782 L 253 781 L 254 781 L 255 780 L 256 780 L 257 779 L 258 779 L 260 777 L 261 777 L 262 776 L 263 776 L 264 775 L 265 775 L 266 774 L 267 774 L 268 773 L 270 773 L 271 772 L 272 772 L 273 771 L 274 771 L 275 770 L 276 770 L 277 769 L 278 769 L 279 768 L 280 768 L 281 767 L 283 767 L 284 766 L 285 766 L 286 765 L 288 765 L 289 764 L 290 764 L 291 763 L 293 763 L 294 762 L 295 762 L 296 761 L 298 761 L 299 760 L 301 760 L 302 759 L 304 759 L 305 758 L 307 758 L 308 757 L 310 757 L 311 756 L 313 756 L 314 755 L 316 755 L 317 754 L 319 754 L 320 753 L 323 753 L 324 752 L 327 752 L 328 751 L 331 751 L 332 750 L 334 750 L 335 749 L 338 749 L 339 748 L 341 748 L 342 747 L 345 747 L 346 746 L 349 746 L 350 745 L 353 745 L 354 744 L 356 744 L 357 743 L 360 743 L 361 742 L 363 742 L 364 741 L 365 741 L 367 739 L 368 739 L 375 732 L 375 731 L 376 730 L 376 728 L 377 727 Z M 1225 643 L 1224 642 L 1224 637 L 1223 636 L 1223 633 L 1222 632 L 1222 630 L 1221 629 L 1221 628 L 1220 627 L 1220 625 L 1219 624 L 1219 623 L 1217 621 L 1217 620 L 1214 617 L 1214 616 L 1204 606 L 1203 606 L 1200 603 L 1199 603 L 1197 601 L 1196 601 L 1195 600 L 1194 600 L 1193 599 L 1192 599 L 1191 598 L 1189 598 L 1188 597 L 1187 597 L 1186 596 L 1184 596 L 1183 595 L 1181 595 L 1180 594 L 1176 594 L 1175 593 L 1153 593 L 1152 594 L 1147 594 L 1146 595 L 1142 595 L 1141 596 L 1139 596 L 1138 597 L 1136 597 L 1135 598 L 1132 598 L 1131 599 L 1129 599 L 1128 600 L 1126 600 L 1125 601 L 1123 601 L 1122 602 L 1121 602 L 1120 603 L 1118 603 L 1117 604 L 1116 604 L 1115 605 L 1113 605 L 1112 606 L 1111 606 L 1110 607 L 1108 607 L 1107 608 L 1105 608 L 1104 609 L 1103 609 L 1102 610 L 1100 610 L 1099 611 L 1098 611 L 1097 612 L 1095 612 L 1094 613 L 1092 613 L 1091 614 L 1089 614 L 1088 615 L 1087 615 L 1086 616 L 1084 616 L 1083 617 L 1081 617 L 1080 618 L 1078 618 L 1077 619 L 1076 619 L 1075 620 L 1072 620 L 1071 621 L 1068 621 L 1067 622 L 1065 622 L 1064 623 L 1062 623 L 1061 624 L 1058 624 L 1057 625 L 1055 625 L 1054 626 L 1051 626 L 1050 627 L 1047 627 L 1046 628 L 1042 628 L 1041 629 L 1036 629 L 1035 630 L 1031 630 L 1030 631 L 1025 631 L 1024 632 L 1016 632 L 1015 633 L 1004 633 L 1003 634 L 980 634 L 979 633 L 965 633 L 964 632 L 957 632 L 956 631 L 951 631 L 950 630 L 944 630 L 943 629 L 937 629 L 936 628 L 931 628 L 930 627 L 924 627 L 923 626 L 909 626 L 908 627 L 906 627 L 905 628 L 904 628 L 903 629 L 902 629 L 896 635 L 896 636 L 895 637 L 895 639 L 894 640 L 894 648 L 895 649 L 895 651 L 896 652 L 896 653 L 897 654 L 897 655 L 901 659 L 902 659 L 903 660 L 904 660 L 905 661 L 906 661 L 907 662 L 911 662 L 912 663 L 920 663 L 921 662 L 928 662 L 929 661 L 935 661 L 936 660 L 945 660 L 946 659 L 954 659 L 955 658 L 964 658 L 965 657 L 1009 657 L 1010 658 L 1016 658 L 1017 659 L 1022 659 L 1023 660 L 1028 660 L 1029 661 L 1033 661 L 1034 662 L 1038 662 L 1039 663 L 1042 663 L 1043 664 L 1045 664 L 1046 665 L 1049 665 L 1050 666 L 1052 666 L 1053 667 L 1055 667 L 1056 668 L 1058 668 L 1059 669 L 1061 669 L 1062 670 L 1064 670 L 1065 671 L 1066 671 L 1067 672 L 1069 672 L 1070 673 L 1071 673 L 1072 674 L 1074 674 L 1075 675 L 1077 675 L 1078 676 L 1079 676 L 1080 677 L 1082 677 L 1083 678 L 1084 678 L 1085 679 L 1087 679 L 1088 680 L 1089 680 L 1090 681 L 1091 681 L 1092 682 L 1094 682 L 1095 683 L 1096 683 L 1097 684 L 1099 684 L 1100 685 L 1101 685 L 1102 686 L 1103 686 L 1104 687 L 1106 687 L 1107 688 L 1108 688 L 1109 689 L 1110 689 L 1111 690 L 1113 690 L 1114 691 L 1116 691 L 1117 692 L 1118 692 L 1119 693 L 1121 693 L 1122 694 L 1123 694 L 1124 695 L 1126 695 L 1127 696 L 1129 696 L 1130 697 L 1132 697 L 1133 698 L 1136 698 L 1137 699 L 1139 699 L 1140 700 L 1143 700 L 1144 701 L 1149 701 L 1150 702 L 1156 702 L 1157 703 L 1172 703 L 1173 702 L 1178 702 L 1179 701 L 1181 701 L 1182 700 L 1185 700 L 1186 699 L 1188 699 L 1189 698 L 1190 698 L 1191 697 L 1192 697 L 1193 696 L 1194 696 L 1195 695 L 1196 695 L 1198 693 L 1199 693 L 1201 691 L 1202 691 L 1213 680 L 1213 679 L 1216 676 L 1216 675 L 1218 673 L 1218 672 L 1219 671 L 1219 670 L 1220 669 L 1220 667 L 1221 666 L 1221 664 L 1222 663 L 1222 661 L 1223 660 L 1223 658 L 1224 657 L 1224 653 L 1225 652 Z M 29 654 L 30 655 L 30 660 L 31 661 L 31 664 L 32 665 L 32 667 L 33 668 L 33 669 L 34 670 L 34 671 L 35 672 L 35 673 L 36 674 L 36 675 L 38 677 L 38 678 L 41 681 L 41 682 L 49 690 L 50 690 L 52 692 L 53 692 L 55 694 L 56 694 L 57 695 L 58 695 L 59 696 L 60 696 L 61 697 L 62 697 L 63 698 L 64 698 L 65 699 L 67 699 L 68 700 L 71 700 L 72 701 L 76 701 L 77 702 L 86 702 L 87 703 L 91 703 L 92 702 L 100 702 L 101 701 L 106 701 L 107 700 L 110 700 L 111 699 L 115 699 L 116 698 L 118 698 L 119 697 L 121 697 L 122 696 L 124 696 L 125 695 L 127 695 L 128 694 L 129 694 L 130 693 L 132 693 L 133 692 L 134 692 L 135 691 L 137 691 L 138 690 L 140 690 L 141 689 L 142 689 L 143 688 L 144 688 L 145 687 L 147 687 L 148 686 L 149 686 L 150 685 L 151 685 L 152 684 L 154 684 L 155 683 L 156 683 L 157 682 L 158 682 L 159 681 L 160 681 L 161 680 L 163 680 L 164 679 L 165 679 L 166 678 L 167 678 L 168 677 L 170 677 L 171 676 L 172 676 L 173 675 L 175 675 L 176 674 L 178 674 L 179 673 L 180 673 L 181 672 L 183 672 L 184 671 L 186 671 L 187 670 L 189 670 L 190 669 L 192 669 L 193 668 L 194 668 L 195 667 L 198 667 L 199 666 L 201 666 L 202 665 L 204 665 L 205 664 L 208 664 L 209 663 L 211 663 L 212 662 L 216 662 L 217 661 L 221 661 L 222 660 L 227 660 L 228 659 L 233 659 L 234 658 L 241 658 L 242 657 L 252 657 L 253 656 L 278 656 L 279 657 L 291 657 L 292 658 L 302 658 L 303 659 L 311 659 L 312 660 L 320 660 L 321 661 L 329 661 L 330 662 L 343 662 L 344 661 L 347 661 L 348 660 L 349 660 L 350 659 L 351 659 L 358 652 L 358 651 L 359 650 L 359 648 L 360 647 L 360 639 L 359 638 L 359 636 L 358 635 L 358 634 L 355 631 L 355 630 L 354 630 L 352 628 L 351 628 L 350 627 L 349 627 L 348 626 L 347 626 L 346 625 L 331 625 L 330 626 L 325 626 L 324 627 L 319 627 L 318 628 L 312 628 L 311 629 L 306 629 L 305 630 L 299 630 L 298 631 L 291 631 L 290 632 L 279 632 L 278 633 L 245 633 L 244 632 L 233 632 L 232 631 L 225 631 L 224 630 L 219 630 L 218 629 L 213 629 L 212 628 L 208 628 L 207 627 L 203 627 L 202 626 L 199 626 L 198 625 L 195 625 L 194 624 L 192 624 L 191 623 L 189 623 L 188 622 L 185 622 L 184 621 L 182 621 L 181 620 L 178 620 L 177 619 L 175 619 L 174 618 L 172 618 L 171 617 L 170 617 L 169 616 L 167 616 L 166 615 L 164 615 L 163 614 L 162 614 L 161 613 L 159 613 L 158 612 L 156 612 L 155 611 L 153 611 L 152 610 L 150 610 L 149 609 L 148 609 L 147 608 L 145 608 L 144 607 L 142 607 L 141 606 L 140 606 L 139 605 L 137 605 L 136 604 L 134 604 L 133 603 L 132 603 L 131 602 L 129 602 L 128 601 L 127 601 L 126 600 L 124 600 L 123 599 L 120 599 L 119 598 L 117 598 L 116 597 L 113 597 L 112 596 L 110 596 L 109 595 L 105 595 L 104 594 L 98 594 L 97 593 L 81 593 L 80 594 L 75 594 L 74 595 L 71 595 L 70 596 L 68 596 L 67 597 L 66 597 L 65 598 L 64 598 L 63 599 L 61 599 L 60 600 L 59 600 L 57 602 L 56 602 L 54 604 L 53 604 L 50 607 L 49 607 L 40 616 L 40 617 L 38 619 L 38 620 L 36 622 L 36 623 L 35 624 L 35 625 L 34 626 L 34 627 L 33 628 L 33 629 L 32 630 L 32 632 L 31 633 L 31 636 L 30 637 L 30 641 L 29 642 Z M 1202 477 L 1201 476 L 1201 474 L 1200 473 L 1200 471 L 1199 470 L 1199 468 L 1198 467 L 1198 466 L 1197 465 L 1197 464 L 1196 463 L 1196 462 L 1195 461 L 1195 460 L 1192 457 L 1192 456 L 1181 445 L 1180 445 L 1179 444 L 1178 444 L 1176 442 L 1175 442 L 1174 441 L 1173 441 L 1172 440 L 1171 440 L 1170 439 L 1168 439 L 1167 438 L 1166 438 L 1165 437 L 1162 437 L 1161 436 L 1158 436 L 1157 435 L 1135 435 L 1134 436 L 1129 436 L 1128 437 L 1126 437 L 1125 438 L 1124 438 L 1123 439 L 1122 439 L 1121 440 L 1119 440 L 1118 441 L 1116 441 L 1115 442 L 1114 442 L 1113 443 L 1112 443 L 1111 444 L 1110 444 L 1109 445 L 1108 445 L 1107 446 L 1106 446 L 1105 447 L 1104 447 L 1102 449 L 1101 449 L 1099 451 L 1098 451 L 1097 452 L 1096 452 L 1093 455 L 1092 455 L 1090 457 L 1089 457 L 1086 460 L 1085 460 L 1081 464 L 1080 464 L 1077 467 L 1076 467 L 1072 471 L 1071 471 L 1066 476 L 1065 476 L 1062 479 L 1061 479 L 1057 483 L 1056 483 L 1051 488 L 1050 488 L 1048 490 L 1047 490 L 1044 493 L 1043 493 L 1041 495 L 1040 495 L 1038 497 L 1037 497 L 1034 500 L 1033 500 L 1032 501 L 1031 501 L 1029 503 L 1028 503 L 1027 504 L 1026 504 L 1024 506 L 1023 506 L 1022 507 L 1021 507 L 1019 509 L 1018 509 L 1017 510 L 1016 510 L 1015 511 L 1014 511 L 1013 512 L 1012 512 L 1011 513 L 1010 513 L 1009 514 L 1008 514 L 1007 515 L 1006 515 L 1005 516 L 1004 516 L 1003 517 L 1002 517 L 1001 518 L 999 518 L 998 519 L 997 519 L 996 520 L 995 520 L 994 521 L 993 521 L 992 522 L 990 522 L 989 523 L 988 523 L 987 524 L 985 524 L 984 525 L 982 525 L 981 526 L 979 526 L 978 527 L 976 527 L 975 528 L 973 528 L 972 529 L 970 529 L 969 530 L 966 530 L 965 531 L 963 531 L 962 532 L 959 532 L 958 533 L 953 533 L 952 534 L 949 534 L 948 535 L 944 535 L 943 536 L 938 536 L 937 537 L 933 537 L 932 538 L 926 538 L 925 539 L 918 539 L 917 540 L 910 540 L 909 541 L 903 541 L 902 542 L 900 542 L 899 543 L 897 543 L 896 544 L 895 544 L 893 546 L 892 546 L 888 550 L 888 551 L 886 553 L 886 554 L 885 555 L 885 566 L 886 567 L 886 569 L 888 571 L 888 572 L 891 575 L 892 575 L 894 577 L 895 577 L 896 578 L 899 578 L 900 579 L 907 579 L 908 578 L 911 578 L 912 577 L 914 577 L 915 576 L 917 576 L 918 575 L 919 575 L 920 574 L 922 574 L 923 573 L 924 573 L 925 572 L 927 572 L 928 571 L 930 571 L 931 570 L 932 570 L 933 569 L 934 569 L 935 568 L 937 568 L 938 567 L 939 567 L 940 566 L 942 566 L 943 565 L 945 565 L 946 564 L 948 564 L 949 563 L 950 563 L 951 562 L 953 562 L 954 561 L 956 561 L 957 560 L 958 560 L 959 559 L 961 559 L 962 558 L 965 558 L 966 557 L 968 557 L 969 556 L 971 556 L 972 555 L 975 555 L 976 554 L 978 554 L 979 553 L 981 553 L 982 552 L 986 552 L 987 551 L 990 551 L 991 550 L 995 550 L 996 549 L 1000 549 L 1001 548 L 1006 548 L 1007 547 L 1012 547 L 1013 546 L 1020 546 L 1021 545 L 1030 545 L 1031 544 L 1046 544 L 1047 543 L 1085 543 L 1086 544 L 1111 544 L 1112 545 L 1134 545 L 1135 544 L 1145 544 L 1146 543 L 1151 543 L 1152 542 L 1155 542 L 1156 541 L 1159 541 L 1160 540 L 1161 540 L 1162 539 L 1164 539 L 1165 538 L 1166 538 L 1167 537 L 1168 537 L 1169 536 L 1171 536 L 1173 534 L 1174 534 L 1175 533 L 1176 533 L 1178 531 L 1179 531 L 1181 529 L 1182 529 L 1192 519 L 1192 518 L 1194 516 L 1194 515 L 1196 513 L 1196 512 L 1197 511 L 1197 510 L 1198 509 L 1198 508 L 1199 507 L 1199 505 L 1200 504 L 1200 503 L 1201 502 L 1201 499 L 1202 498 L 1202 492 L 1203 491 L 1203 484 L 1202 483 Z M 54 471 L 54 474 L 53 475 L 53 480 L 52 481 L 52 491 L 53 492 L 53 497 L 54 498 L 54 500 L 55 501 L 55 504 L 56 505 L 56 506 L 57 507 L 57 509 L 59 511 L 59 512 L 60 513 L 60 514 L 62 516 L 62 517 L 65 520 L 65 521 L 70 526 L 71 526 L 75 530 L 76 530 L 77 531 L 78 531 L 80 533 L 81 533 L 82 534 L 83 534 L 84 535 L 85 535 L 86 536 L 87 536 L 88 537 L 89 537 L 90 538 L 92 538 L 93 539 L 94 539 L 95 540 L 97 540 L 98 541 L 101 541 L 102 542 L 106 542 L 107 543 L 113 543 L 114 544 L 159 544 L 160 543 L 184 543 L 185 542 L 186 543 L 187 542 L 210 542 L 211 543 L 228 543 L 229 544 L 238 544 L 239 545 L 245 545 L 246 546 L 250 546 L 251 547 L 254 547 L 255 548 L 259 548 L 260 549 L 263 549 L 264 550 L 268 550 L 269 551 L 272 551 L 273 552 L 275 552 L 276 553 L 278 553 L 279 554 L 281 554 L 282 555 L 285 555 L 286 556 L 287 556 L 288 557 L 290 557 L 291 558 L 293 558 L 294 559 L 295 559 L 296 560 L 298 560 L 299 561 L 300 561 L 301 562 L 303 562 L 304 563 L 306 563 L 307 564 L 308 564 L 309 565 L 311 565 L 312 566 L 313 566 L 314 567 L 316 567 L 317 568 L 318 568 L 319 569 L 321 569 L 322 570 L 323 570 L 324 571 L 325 571 L 326 572 L 328 572 L 329 573 L 331 573 L 332 574 L 334 574 L 335 575 L 336 575 L 337 576 L 338 576 L 339 577 L 341 577 L 342 578 L 355 578 L 356 577 L 358 577 L 360 575 L 361 575 L 366 570 L 366 569 L 367 568 L 367 567 L 368 566 L 368 555 L 367 554 L 367 552 L 365 550 L 365 549 L 361 545 L 360 545 L 359 544 L 358 544 L 357 543 L 356 543 L 355 542 L 354 542 L 353 541 L 350 541 L 349 540 L 344 540 L 343 539 L 337 539 L 336 538 L 330 538 L 329 537 L 324 537 L 323 536 L 319 536 L 318 535 L 314 535 L 313 534 L 309 534 L 308 533 L 304 533 L 303 532 L 300 532 L 299 531 L 296 531 L 295 530 L 293 530 L 292 529 L 289 529 L 288 528 L 286 528 L 285 527 L 283 527 L 282 526 L 280 526 L 279 525 L 277 525 L 276 524 L 274 524 L 273 523 L 272 523 L 271 522 L 269 522 L 268 521 L 267 521 L 266 520 L 265 520 L 264 519 L 262 519 L 261 518 L 260 518 L 259 517 L 258 517 L 257 516 L 256 516 L 255 515 L 254 515 L 253 514 L 252 514 L 251 513 L 250 513 L 249 512 L 248 512 L 247 511 L 246 511 L 245 510 L 244 510 L 243 509 L 242 509 L 240 507 L 239 507 L 238 506 L 237 506 L 235 504 L 234 504 L 233 503 L 232 503 L 230 501 L 229 501 L 227 499 L 226 499 L 224 497 L 223 497 L 221 495 L 220 495 L 218 493 L 217 493 L 215 491 L 214 491 L 211 488 L 210 488 L 208 486 L 207 486 L 203 482 L 202 482 L 200 480 L 199 480 L 196 477 L 195 477 L 191 473 L 190 473 L 187 470 L 186 470 L 183 467 L 182 467 L 179 464 L 178 464 L 174 460 L 173 460 L 170 457 L 169 457 L 167 455 L 166 455 L 163 452 L 162 452 L 160 450 L 159 450 L 158 449 L 157 449 L 155 447 L 154 447 L 153 446 L 152 446 L 150 444 L 149 444 L 148 443 L 147 443 L 146 442 L 145 442 L 144 441 L 142 441 L 141 440 L 140 440 L 139 439 L 138 439 L 137 438 L 135 438 L 134 437 L 132 437 L 131 436 L 129 436 L 128 435 L 125 435 L 124 434 L 120 434 L 119 433 L 99 433 L 98 434 L 94 434 L 93 435 L 90 435 L 89 436 L 87 436 L 86 437 L 84 437 L 82 439 L 81 439 L 80 440 L 79 440 L 77 442 L 76 442 L 75 443 L 74 443 L 69 448 L 68 448 L 65 451 L 65 452 L 62 455 L 62 456 L 60 458 L 60 459 L 58 461 L 58 462 L 57 463 L 57 464 L 56 465 L 56 467 L 55 468 L 55 470 Z M 1121 301 L 1109 289 L 1108 289 L 1106 287 L 1105 287 L 1103 285 L 1102 285 L 1101 284 L 1100 284 L 1099 283 L 1097 283 L 1096 282 L 1095 282 L 1094 281 L 1092 281 L 1091 280 L 1089 280 L 1088 279 L 1080 279 L 1079 278 L 1072 278 L 1071 279 L 1065 279 L 1064 280 L 1062 280 L 1061 281 L 1058 281 L 1057 282 L 1055 282 L 1054 283 L 1052 283 L 1051 284 L 1050 284 L 1049 285 L 1048 285 L 1047 286 L 1046 286 L 1045 287 L 1044 287 L 1043 288 L 1042 288 L 1041 289 L 1040 289 L 1038 291 L 1037 291 L 1035 293 L 1034 293 L 1032 295 L 1031 295 L 1027 299 L 1026 299 L 1021 304 L 1020 304 L 1012 312 L 1012 313 L 1002 323 L 1002 324 L 998 328 L 998 329 L 994 333 L 994 334 L 991 337 L 991 338 L 988 341 L 988 342 L 986 344 L 986 345 L 983 348 L 983 349 L 980 352 L 980 353 L 978 355 L 978 356 L 975 359 L 975 360 L 971 364 L 971 365 L 969 367 L 969 368 L 965 372 L 965 373 L 963 375 L 963 376 L 957 382 L 957 383 L 953 387 L 953 388 L 949 392 L 949 393 L 940 402 L 940 403 L 925 418 L 924 418 L 916 426 L 915 426 L 912 429 L 911 429 L 907 433 L 906 433 L 904 435 L 903 435 L 901 437 L 900 437 L 897 440 L 896 440 L 895 441 L 894 441 L 892 443 L 891 443 L 889 445 L 888 445 L 886 447 L 885 447 L 884 448 L 883 448 L 882 449 L 881 449 L 879 451 L 878 451 L 877 452 L 876 452 L 874 454 L 873 454 L 872 455 L 871 455 L 870 456 L 869 456 L 868 457 L 867 457 L 866 458 L 865 458 L 864 459 L 863 459 L 861 461 L 860 461 L 859 462 L 858 462 L 857 463 L 856 463 L 854 465 L 853 465 L 852 466 L 851 466 L 848 469 L 847 469 L 844 472 L 844 473 L 843 474 L 843 475 L 842 476 L 842 477 L 841 478 L 841 489 L 842 490 L 842 492 L 844 494 L 844 495 L 849 500 L 850 500 L 851 501 L 853 501 L 854 502 L 863 502 L 864 501 L 866 501 L 867 500 L 868 500 L 869 499 L 870 499 L 871 498 L 872 498 L 875 495 L 876 495 L 880 491 L 881 491 L 885 487 L 886 487 L 891 482 L 892 482 L 899 475 L 900 475 L 905 470 L 906 470 L 911 465 L 912 465 L 916 461 L 917 461 L 920 458 L 921 458 L 924 455 L 925 455 L 928 452 L 929 452 L 931 450 L 932 450 L 934 448 L 935 448 L 936 447 L 937 447 L 939 445 L 940 445 L 941 444 L 942 444 L 944 442 L 945 442 L 946 441 L 947 441 L 949 439 L 950 439 L 951 438 L 952 438 L 953 437 L 954 437 L 956 435 L 957 435 L 958 434 L 959 434 L 960 433 L 961 433 L 962 432 L 963 432 L 964 431 L 965 431 L 966 430 L 967 430 L 968 429 L 970 429 L 971 428 L 972 428 L 973 427 L 974 427 L 975 426 L 976 426 L 977 425 L 979 425 L 980 424 L 981 424 L 982 423 L 983 423 L 984 422 L 986 422 L 987 421 L 988 421 L 989 420 L 991 420 L 992 419 L 994 419 L 995 418 L 996 418 L 997 417 L 999 417 L 1000 416 L 1002 416 L 1003 415 L 1005 415 L 1006 414 L 1009 414 L 1010 413 L 1012 413 L 1013 412 L 1014 412 L 1015 411 L 1017 411 L 1018 410 L 1020 410 L 1021 409 L 1024 409 L 1025 408 L 1028 408 L 1029 407 L 1031 407 L 1032 406 L 1035 406 L 1036 405 L 1038 405 L 1039 404 L 1042 404 L 1043 403 L 1045 403 L 1046 402 L 1049 402 L 1050 401 L 1053 401 L 1054 400 L 1056 400 L 1057 399 L 1059 399 L 1060 398 L 1063 398 L 1064 397 L 1066 397 L 1067 396 L 1069 396 L 1070 395 L 1072 395 L 1073 394 L 1075 394 L 1076 393 L 1078 393 L 1079 392 L 1080 392 L 1081 391 L 1083 391 L 1084 390 L 1085 390 L 1086 389 L 1087 389 L 1088 388 L 1089 388 L 1090 387 L 1091 387 L 1092 386 L 1093 386 L 1094 385 L 1095 385 L 1096 384 L 1097 384 L 1099 382 L 1100 382 L 1102 380 L 1103 380 L 1105 378 L 1106 378 L 1119 365 L 1119 364 L 1122 361 L 1122 360 L 1123 359 L 1123 358 L 1124 357 L 1124 356 L 1126 354 L 1126 352 L 1127 351 L 1127 350 L 1128 349 L 1128 347 L 1129 346 L 1129 344 L 1130 343 L 1130 337 L 1131 336 L 1131 329 L 1130 328 L 1130 321 L 1129 320 L 1129 317 L 1128 316 L 1128 314 L 1127 313 L 1127 312 L 1126 311 L 1126 310 L 1125 309 L 1125 308 L 1124 307 L 1124 306 L 1123 305 L 1123 304 L 1121 302 Z M 133 299 L 133 300 L 131 302 L 131 303 L 129 305 L 129 306 L 128 307 L 128 308 L 127 309 L 127 310 L 126 311 L 126 313 L 125 314 L 125 316 L 124 317 L 124 321 L 123 322 L 123 341 L 124 342 L 124 345 L 125 346 L 125 349 L 126 350 L 126 351 L 127 352 L 127 353 L 128 354 L 128 355 L 129 356 L 129 357 L 130 358 L 130 359 L 131 360 L 131 361 L 133 363 L 133 364 L 138 369 L 138 370 L 143 375 L 144 375 L 147 378 L 148 378 L 150 380 L 151 380 L 153 382 L 154 382 L 156 384 L 157 384 L 158 385 L 159 385 L 160 386 L 161 386 L 162 387 L 163 387 L 164 388 L 165 388 L 166 389 L 167 389 L 168 390 L 169 390 L 170 391 L 172 391 L 173 392 L 174 392 L 175 393 L 177 393 L 178 394 L 181 394 L 182 395 L 184 395 L 185 396 L 187 396 L 188 397 L 190 397 L 191 398 L 193 398 L 194 399 L 197 399 L 198 400 L 200 400 L 201 401 L 204 401 L 205 402 L 209 402 L 210 403 L 212 403 L 213 404 L 216 404 L 217 405 L 219 405 L 220 406 L 223 406 L 224 407 L 226 407 L 227 408 L 230 408 L 231 409 L 234 409 L 235 410 L 237 410 L 238 411 L 241 411 L 242 412 L 244 412 L 245 413 L 246 413 L 247 414 L 250 414 L 251 415 L 252 415 L 253 416 L 255 416 L 256 417 L 258 417 L 259 418 L 261 418 L 262 419 L 264 419 L 265 420 L 266 420 L 267 421 L 268 421 L 269 422 L 271 422 L 272 423 L 273 423 L 274 424 L 275 424 L 276 425 L 278 425 L 279 426 L 280 426 L 281 427 L 282 427 L 283 428 L 285 428 L 286 429 L 287 429 L 288 430 L 289 430 L 291 432 L 293 432 L 295 434 L 296 434 L 297 435 L 298 435 L 299 436 L 300 436 L 301 437 L 302 437 L 303 438 L 304 438 L 306 440 L 307 440 L 308 441 L 309 441 L 311 443 L 312 443 L 313 444 L 314 444 L 317 447 L 318 447 L 320 449 L 321 449 L 323 451 L 324 451 L 327 454 L 328 454 L 331 457 L 332 457 L 337 462 L 338 462 L 343 467 L 344 467 L 351 474 L 352 474 L 361 483 L 362 483 L 368 489 L 369 489 L 373 493 L 374 493 L 377 496 L 378 496 L 379 497 L 380 497 L 382 499 L 384 499 L 385 500 L 389 500 L 390 501 L 393 501 L 394 500 L 397 500 L 398 499 L 400 499 L 402 497 L 403 497 L 406 494 L 406 493 L 408 491 L 408 490 L 409 489 L 409 486 L 410 485 L 410 481 L 409 480 L 409 477 L 408 476 L 408 474 L 406 472 L 406 471 L 400 465 L 399 465 L 398 464 L 397 464 L 395 462 L 394 462 L 393 461 L 392 461 L 391 460 L 390 460 L 389 459 L 388 459 L 386 457 L 385 457 L 384 456 L 383 456 L 382 455 L 381 455 L 380 454 L 379 454 L 378 453 L 377 453 L 376 452 L 375 452 L 373 450 L 372 450 L 371 449 L 370 449 L 369 448 L 368 448 L 367 447 L 366 447 L 364 445 L 363 445 L 361 443 L 360 443 L 359 442 L 358 442 L 356 440 L 355 440 L 353 438 L 352 438 L 350 436 L 349 436 L 347 434 L 346 434 L 343 431 L 342 431 L 339 428 L 338 428 L 331 421 L 330 421 L 306 397 L 306 396 L 301 391 L 301 390 L 296 385 L 296 384 L 292 380 L 292 379 L 289 376 L 289 375 L 286 372 L 286 371 L 282 367 L 282 366 L 279 363 L 279 362 L 277 360 L 277 359 L 274 356 L 274 355 L 272 353 L 272 352 L 269 349 L 269 348 L 267 346 L 267 345 L 264 342 L 264 341 L 262 339 L 262 338 L 258 334 L 258 333 L 256 331 L 256 330 L 253 327 L 253 326 L 250 323 L 250 322 L 244 316 L 244 315 L 226 297 L 225 297 L 221 293 L 220 293 L 217 290 L 216 290 L 214 288 L 213 288 L 212 287 L 211 287 L 209 285 L 208 285 L 207 284 L 206 284 L 205 283 L 204 283 L 203 282 L 201 282 L 200 281 L 199 281 L 198 280 L 196 280 L 195 279 L 193 279 L 192 278 L 188 278 L 187 277 L 168 277 L 167 278 L 163 278 L 162 279 L 160 279 L 159 280 L 157 280 L 156 281 L 155 281 L 154 282 L 153 282 L 152 283 L 151 283 L 149 285 L 148 285 L 147 286 L 146 286 L 141 291 L 140 291 L 136 295 L 136 296 Z M 990 160 L 989 160 L 988 159 L 987 159 L 985 157 L 984 157 L 983 156 L 982 156 L 981 155 L 979 155 L 978 154 L 977 154 L 976 153 L 974 153 L 973 152 L 970 152 L 969 151 L 963 151 L 962 150 L 953 150 L 952 151 L 947 151 L 946 152 L 943 152 L 942 153 L 940 153 L 939 154 L 937 154 L 936 155 L 934 155 L 933 156 L 932 156 L 931 157 L 930 157 L 928 159 L 927 159 L 926 160 L 925 160 L 923 162 L 922 162 L 919 165 L 918 165 L 907 176 L 907 177 L 903 181 L 903 182 L 901 184 L 901 185 L 898 188 L 898 189 L 897 190 L 897 191 L 895 193 L 895 194 L 894 195 L 894 196 L 892 198 L 892 199 L 891 200 L 891 201 L 890 202 L 890 203 L 889 204 L 889 205 L 888 206 L 888 207 L 887 208 L 887 209 L 886 210 L 886 211 L 885 212 L 885 213 L 884 214 L 884 216 L 883 217 L 883 218 L 882 219 L 882 220 L 881 221 L 881 223 L 880 224 L 880 225 L 879 226 L 879 228 L 878 229 L 878 230 L 877 231 L 877 233 L 876 234 L 876 235 L 875 236 L 875 238 L 874 239 L 874 241 L 873 242 L 873 244 L 872 245 L 872 246 L 871 247 L 871 249 L 870 250 L 870 251 L 869 252 L 869 254 L 868 255 L 868 257 L 867 258 L 867 260 L 866 261 L 866 262 L 865 263 L 865 265 L 864 266 L 864 268 L 863 269 L 863 270 L 862 271 L 862 272 L 861 273 L 861 275 L 860 276 L 860 277 L 859 278 L 859 280 L 858 281 L 858 283 L 857 284 L 857 285 L 856 286 L 856 287 L 855 288 L 855 289 L 854 290 L 854 291 L 853 292 L 853 294 L 852 295 L 852 296 L 851 297 L 851 298 L 850 299 L 850 300 L 849 301 L 849 302 L 848 303 L 848 304 L 847 305 L 847 306 L 846 307 L 846 308 L 845 309 L 845 310 L 844 311 L 844 312 L 843 313 L 843 314 L 842 315 L 842 316 L 841 317 L 841 318 L 840 319 L 840 320 L 838 322 L 838 323 L 837 324 L 837 325 L 836 326 L 836 327 L 834 329 L 834 330 L 832 332 L 832 333 L 830 335 L 830 336 L 828 338 L 828 339 L 826 341 L 826 342 L 824 344 L 824 345 L 821 348 L 821 349 L 818 352 L 818 353 L 814 357 L 814 358 L 805 367 L 805 368 L 787 386 L 787 387 L 777 397 L 777 398 L 775 400 L 775 401 L 774 402 L 774 403 L 773 404 L 773 405 L 772 406 L 772 417 L 773 418 L 773 419 L 774 420 L 774 421 L 775 422 L 775 423 L 778 426 L 779 426 L 781 428 L 782 428 L 783 429 L 785 429 L 786 430 L 794 430 L 795 429 L 797 429 L 798 428 L 799 428 L 800 427 L 801 427 L 811 417 L 811 416 L 814 413 L 814 412 L 816 410 L 816 409 L 818 407 L 818 406 L 819 405 L 819 404 L 821 402 L 821 401 L 823 399 L 823 398 L 825 396 L 825 395 L 827 393 L 827 392 L 828 391 L 828 390 L 831 387 L 831 386 L 833 384 L 833 383 L 834 382 L 834 381 L 837 378 L 837 377 L 840 374 L 840 373 L 842 371 L 842 370 L 846 366 L 846 365 L 850 361 L 850 360 L 863 347 L 863 346 L 874 335 L 875 335 L 882 328 L 883 328 L 888 323 L 889 323 L 892 320 L 893 320 L 896 317 L 897 317 L 900 314 L 901 314 L 904 311 L 905 311 L 907 309 L 908 309 L 911 306 L 912 306 L 914 304 L 915 304 L 917 302 L 918 302 L 920 300 L 921 300 L 923 298 L 924 298 L 925 297 L 926 297 L 928 295 L 929 295 L 931 293 L 932 293 L 934 291 L 935 291 L 936 290 L 937 290 L 939 288 L 940 288 L 941 287 L 942 287 L 944 285 L 945 285 L 947 283 L 948 283 L 950 281 L 951 281 L 952 280 L 953 280 L 955 278 L 956 278 L 957 277 L 958 277 L 960 275 L 961 275 L 963 273 L 964 273 L 967 270 L 968 270 L 970 268 L 971 268 L 974 265 L 975 265 L 978 262 L 979 262 L 984 257 L 985 257 L 995 247 L 995 246 L 1000 241 L 1000 240 L 1003 237 L 1003 236 L 1004 235 L 1004 234 L 1005 233 L 1005 232 L 1006 231 L 1006 230 L 1007 229 L 1007 228 L 1008 227 L 1008 226 L 1009 225 L 1009 224 L 1010 223 L 1010 221 L 1011 220 L 1011 216 L 1012 215 L 1012 208 L 1013 207 L 1013 201 L 1012 200 L 1012 193 L 1011 192 L 1011 189 L 1010 188 L 1010 186 L 1009 185 L 1009 184 L 1008 183 L 1008 182 L 1007 181 L 1007 180 L 1006 179 L 1006 178 L 1005 177 L 1005 176 L 1003 174 L 1003 173 L 997 167 L 997 166 L 996 165 L 995 165 Z M 259 163 L 256 166 L 256 167 L 250 173 L 250 174 L 248 176 L 248 177 L 246 179 L 246 180 L 245 181 L 245 182 L 244 183 L 244 184 L 243 185 L 243 188 L 242 189 L 242 192 L 241 193 L 241 197 L 240 198 L 240 211 L 241 212 L 241 218 L 242 219 L 242 222 L 243 223 L 243 225 L 244 226 L 244 227 L 243 228 L 244 227 L 245 228 L 245 229 L 244 230 L 245 229 L 246 230 L 246 231 L 247 232 L 247 233 L 249 235 L 249 236 L 250 237 L 250 238 L 253 241 L 253 242 L 256 245 L 256 246 L 268 258 L 269 258 L 273 262 L 274 262 L 277 265 L 278 265 L 281 268 L 282 268 L 284 270 L 285 270 L 287 272 L 288 272 L 290 274 L 291 274 L 293 276 L 294 276 L 296 278 L 297 278 L 299 280 L 300 280 L 301 281 L 302 281 L 304 283 L 305 283 L 307 285 L 308 285 L 310 287 L 311 287 L 312 288 L 313 288 L 315 290 L 316 290 L 318 292 L 319 292 L 320 293 L 321 293 L 323 295 L 324 295 L 326 297 L 327 297 L 329 299 L 330 299 L 332 301 L 333 301 L 335 303 L 336 303 L 338 305 L 339 305 L 341 307 L 342 307 L 345 310 L 346 310 L 349 313 L 350 313 L 353 316 L 354 316 L 358 320 L 359 320 L 362 323 L 363 323 L 369 329 L 370 329 L 397 356 L 397 357 L 402 362 L 402 363 L 407 368 L 407 369 L 409 371 L 409 372 L 412 375 L 412 376 L 415 379 L 415 380 L 417 382 L 417 383 L 418 384 L 418 385 L 420 387 L 420 388 L 422 390 L 422 391 L 424 393 L 424 394 L 425 395 L 425 396 L 427 398 L 427 399 L 429 401 L 429 402 L 431 404 L 431 405 L 433 407 L 433 408 L 435 410 L 435 411 L 437 413 L 437 414 L 439 416 L 439 417 L 442 420 L 442 421 L 445 424 L 446 424 L 448 426 L 449 426 L 450 427 L 451 427 L 452 428 L 453 428 L 454 429 L 462 429 L 463 428 L 465 428 L 466 427 L 468 427 L 471 424 L 472 424 L 473 423 L 473 422 L 475 420 L 475 419 L 476 418 L 476 417 L 477 416 L 477 413 L 478 412 L 478 409 L 477 408 L 477 405 L 476 404 L 476 402 L 474 400 L 474 399 L 472 397 L 472 396 L 456 380 L 456 379 L 442 365 L 442 364 L 436 358 L 436 357 L 433 354 L 433 353 L 430 350 L 430 349 L 427 346 L 427 345 L 425 343 L 425 342 L 423 340 L 423 339 L 421 337 L 421 336 L 419 334 L 419 333 L 418 332 L 418 331 L 416 329 L 416 328 L 415 327 L 415 326 L 414 325 L 414 324 L 412 322 L 412 321 L 411 320 L 411 319 L 410 318 L 410 317 L 409 316 L 409 315 L 407 313 L 407 312 L 406 311 L 406 310 L 405 309 L 405 307 L 404 306 L 404 305 L 403 304 L 403 303 L 402 302 L 402 301 L 401 300 L 401 299 L 400 298 L 400 296 L 399 295 L 399 294 L 398 293 L 398 292 L 397 291 L 397 290 L 396 289 L 396 287 L 395 286 L 395 285 L 394 284 L 394 282 L 393 281 L 393 280 L 392 279 L 392 278 L 391 277 L 391 275 L 390 274 L 390 273 L 389 272 L 389 270 L 388 269 L 388 267 L 387 266 L 387 264 L 386 263 L 386 262 L 385 261 L 385 259 L 386 258 L 385 259 L 384 258 L 384 256 L 383 255 L 383 253 L 382 252 L 382 250 L 381 249 L 381 247 L 380 246 L 380 245 L 381 244 L 380 244 L 379 243 L 379 242 L 378 241 L 378 240 L 377 239 L 377 237 L 376 236 L 376 234 L 375 233 L 375 232 L 374 231 L 374 229 L 373 228 L 373 226 L 372 225 L 372 224 L 371 223 L 371 221 L 370 220 L 370 219 L 369 218 L 369 217 L 368 216 L 368 214 L 367 213 L 367 212 L 366 211 L 366 210 L 365 209 L 365 208 L 364 207 L 364 206 L 363 205 L 363 204 L 362 203 L 362 202 L 361 201 L 361 200 L 360 199 L 360 198 L 359 197 L 359 196 L 358 195 L 358 194 L 356 192 L 356 191 L 355 190 L 355 189 L 353 187 L 353 186 L 351 184 L 351 183 L 350 182 L 350 181 L 346 177 L 346 176 L 333 163 L 332 163 L 329 160 L 328 160 L 327 159 L 326 159 L 324 157 L 323 157 L 322 156 L 321 156 L 320 155 L 319 155 L 318 154 L 317 154 L 316 153 L 314 153 L 313 152 L 311 152 L 310 151 L 306 151 L 305 150 L 287 150 L 286 151 L 282 151 L 281 152 L 279 152 L 278 153 L 276 153 L 275 154 L 274 154 L 273 155 L 271 155 L 269 157 L 268 157 L 267 158 L 266 158 L 264 160 L 263 160 L 260 163 Z M 832 68 L 830 68 L 829 67 L 828 67 L 827 66 L 825 66 L 824 65 L 822 65 L 821 64 L 818 64 L 817 63 L 811 63 L 810 62 L 804 62 L 803 63 L 797 63 L 796 64 L 793 64 L 792 65 L 789 65 L 788 66 L 787 66 L 786 67 L 784 67 L 783 68 L 782 68 L 781 69 L 780 69 L 779 70 L 778 70 L 777 71 L 776 71 L 774 73 L 773 73 L 770 76 L 769 76 L 758 87 L 758 88 L 755 91 L 755 92 L 752 95 L 752 96 L 751 97 L 751 98 L 749 100 L 749 101 L 748 102 L 748 103 L 747 104 L 747 105 L 746 106 L 746 108 L 745 109 L 745 110 L 744 111 L 744 112 L 743 113 L 743 114 L 742 115 L 742 117 L 741 118 L 741 120 L 740 121 L 740 123 L 739 124 L 739 127 L 738 128 L 738 131 L 737 132 L 737 136 L 736 137 L 736 140 L 735 141 L 735 146 L 734 147 L 734 153 L 733 154 L 733 163 L 732 164 L 732 185 L 731 186 L 731 211 L 730 212 L 730 224 L 729 225 L 729 236 L 728 237 L 728 244 L 727 245 L 727 250 L 726 251 L 726 256 L 725 257 L 725 262 L 724 263 L 724 267 L 723 268 L 723 272 L 722 273 L 722 277 L 721 278 L 721 281 L 720 282 L 720 284 L 719 285 L 719 288 L 718 289 L 718 291 L 717 292 L 717 294 L 716 295 L 716 297 L 715 298 L 715 300 L 714 301 L 714 303 L 713 304 L 713 305 L 712 306 L 712 307 L 711 308 L 711 310 L 710 311 L 710 312 L 709 313 L 709 315 L 708 316 L 708 318 L 707 319 L 707 320 L 706 321 L 706 323 L 705 324 L 705 325 L 704 326 L 704 327 L 703 328 L 703 329 L 702 330 L 702 331 L 701 332 L 701 333 L 700 334 L 700 335 L 699 336 L 699 337 L 698 338 L 698 339 L 697 340 L 697 341 L 696 342 L 696 343 L 695 344 L 695 345 L 694 346 L 694 347 L 693 348 L 693 350 L 692 351 L 692 352 L 691 353 L 691 354 L 690 355 L 690 357 L 689 358 L 689 360 L 688 361 L 688 369 L 689 370 L 689 373 L 690 374 L 690 375 L 692 377 L 692 378 L 694 380 L 695 380 L 697 382 L 698 382 L 699 383 L 701 383 L 702 384 L 711 384 L 712 383 L 713 383 L 714 382 L 715 382 L 716 381 L 717 381 L 722 376 L 722 375 L 724 373 L 724 372 L 725 371 L 725 369 L 726 368 L 726 366 L 727 365 L 727 362 L 728 361 L 728 357 L 729 356 L 729 353 L 730 352 L 730 348 L 731 347 L 731 344 L 732 343 L 732 340 L 733 339 L 733 335 L 734 334 L 734 331 L 735 330 L 735 327 L 736 326 L 736 324 L 737 323 L 737 321 L 738 320 L 738 318 L 739 317 L 739 314 L 740 313 L 740 311 L 741 310 L 741 308 L 742 307 L 742 306 L 743 305 L 743 303 L 744 302 L 744 301 L 745 300 L 745 298 L 746 297 L 746 296 L 747 295 L 747 294 L 748 293 L 748 291 L 750 289 L 750 288 L 751 287 L 751 286 L 752 285 L 752 284 L 753 283 L 753 281 L 754 280 L 754 279 L 756 277 L 756 276 L 757 275 L 757 274 L 758 273 L 758 272 L 760 270 L 760 269 L 761 268 L 761 267 L 762 266 L 762 265 L 764 263 L 764 262 L 766 260 L 766 259 L 768 257 L 768 256 L 770 254 L 770 253 L 772 251 L 772 250 L 774 248 L 774 247 L 776 245 L 776 244 L 780 240 L 780 239 L 784 235 L 784 234 L 789 229 L 789 228 L 794 223 L 794 222 L 802 214 L 802 213 L 810 205 L 810 204 L 820 194 L 820 193 L 835 178 L 835 177 L 839 173 L 839 172 L 843 168 L 843 167 L 847 163 L 847 162 L 850 159 L 850 158 L 852 156 L 852 155 L 853 154 L 853 153 L 854 152 L 854 151 L 855 150 L 855 149 L 856 148 L 856 147 L 857 146 L 857 145 L 858 144 L 858 143 L 859 142 L 859 141 L 860 140 L 860 137 L 861 136 L 861 133 L 862 132 L 862 128 L 863 127 L 863 110 L 862 109 L 862 105 L 861 104 L 861 101 L 860 100 L 860 99 L 859 98 L 859 96 L 858 95 L 858 94 L 856 92 L 856 91 L 855 90 L 855 89 L 853 87 L 853 86 L 849 82 L 849 81 L 845 77 L 844 77 L 841 74 L 840 74 L 837 71 L 836 71 L 835 70 L 834 70 Z M 431 65 L 430 66 L 429 66 L 428 67 L 426 67 L 425 68 L 424 68 L 423 69 L 422 69 L 421 70 L 420 70 L 418 72 L 417 72 L 415 74 L 414 74 L 402 86 L 402 87 L 400 89 L 400 90 L 398 92 L 398 93 L 397 94 L 397 95 L 396 96 L 396 97 L 395 98 L 395 100 L 394 101 L 394 102 L 393 103 L 393 106 L 392 107 L 392 112 L 391 113 L 391 128 L 392 129 L 392 134 L 393 135 L 393 138 L 394 139 L 394 141 L 395 142 L 395 144 L 396 145 L 396 146 L 397 147 L 397 148 L 398 149 L 398 150 L 399 151 L 399 152 L 400 153 L 400 154 L 401 155 L 401 156 L 402 157 L 402 158 L 404 160 L 404 161 L 406 163 L 406 164 L 408 166 L 408 167 L 412 171 L 412 172 L 417 177 L 417 178 L 423 184 L 423 185 L 434 196 L 434 197 L 445 208 L 445 209 L 453 217 L 453 218 L 459 224 L 459 225 L 464 230 L 464 231 L 468 235 L 468 236 L 472 240 L 472 241 L 475 244 L 475 245 L 478 248 L 478 249 L 480 251 L 480 252 L 482 254 L 482 255 L 484 257 L 484 258 L 486 260 L 486 261 L 488 263 L 488 264 L 489 265 L 489 266 L 491 268 L 491 269 L 492 270 L 492 271 L 494 273 L 494 274 L 495 275 L 495 276 L 496 277 L 496 278 L 497 279 L 497 280 L 498 281 L 498 282 L 499 283 L 499 284 L 500 285 L 500 286 L 501 287 L 501 288 L 502 289 L 502 290 L 503 291 L 503 292 L 504 293 L 504 295 L 505 296 L 505 297 L 506 298 L 506 300 L 507 301 L 507 303 L 508 304 L 508 305 L 509 306 L 509 307 L 510 308 L 510 310 L 511 311 L 511 313 L 512 314 L 512 317 L 513 318 L 513 321 L 514 322 L 514 324 L 515 325 L 515 328 L 516 329 L 516 332 L 517 333 L 517 336 L 518 337 L 518 341 L 519 342 L 519 345 L 520 346 L 520 351 L 521 352 L 521 356 L 522 357 L 522 362 L 523 363 L 523 366 L 524 367 L 524 369 L 525 370 L 525 372 L 526 373 L 526 374 L 529 377 L 529 378 L 531 380 L 532 380 L 533 381 L 534 381 L 536 383 L 538 383 L 539 384 L 547 384 L 548 383 L 550 383 L 551 382 L 552 382 L 554 380 L 555 380 L 558 377 L 558 376 L 560 374 L 560 372 L 561 371 L 561 367 L 562 366 L 562 364 L 561 363 L 561 358 L 560 357 L 560 355 L 559 354 L 559 352 L 558 351 L 558 350 L 557 349 L 557 348 L 556 347 L 556 346 L 555 345 L 555 344 L 554 343 L 554 342 L 553 341 L 553 340 L 552 339 L 552 338 L 551 337 L 551 336 L 550 335 L 550 333 L 549 332 L 549 331 L 548 330 L 548 329 L 547 328 L 547 326 L 546 325 L 546 324 L 545 323 L 545 321 L 544 320 L 544 319 L 543 318 L 543 316 L 542 315 L 542 314 L 541 313 L 541 312 L 540 311 L 540 309 L 539 308 L 539 306 L 538 305 L 538 303 L 537 302 L 537 300 L 536 299 L 536 297 L 535 296 L 535 294 L 534 293 L 534 290 L 533 289 L 533 287 L 532 286 L 532 283 L 531 282 L 531 278 L 530 277 L 530 274 L 529 273 L 529 269 L 528 268 L 528 264 L 527 263 L 527 258 L 526 257 L 526 251 L 525 250 L 525 243 L 524 242 L 524 233 L 523 232 L 523 222 L 522 221 L 522 199 L 521 198 L 521 171 L 520 170 L 520 157 L 519 156 L 519 149 L 518 148 L 518 141 L 517 140 L 517 136 L 516 135 L 516 131 L 515 130 L 515 127 L 514 126 L 514 123 L 513 122 L 513 120 L 512 119 L 512 117 L 511 116 L 511 114 L 510 113 L 510 111 L 509 110 L 509 109 L 508 108 L 508 106 L 507 105 L 507 104 L 506 103 L 506 102 L 504 100 L 504 99 L 503 98 L 503 97 L 501 95 L 501 94 L 500 93 L 500 92 L 497 89 L 497 88 L 494 85 L 494 84 L 490 80 L 489 80 L 484 75 L 483 75 L 480 72 L 479 72 L 477 70 L 476 70 L 475 69 L 474 69 L 473 68 L 472 68 L 471 67 L 469 67 L 468 66 L 467 66 L 466 65 L 464 65 L 463 64 L 460 64 L 459 63 L 453 63 L 452 62 L 444 62 L 443 63 L 438 63 L 437 64 L 434 64 L 433 65 Z M 622 17 L 621 18 L 616 18 L 615 19 L 612 19 L 611 20 L 609 20 L 608 21 L 607 21 L 606 22 L 604 22 L 603 23 L 602 23 L 601 24 L 599 24 L 597 26 L 596 26 L 595 27 L 594 27 L 591 30 L 590 30 L 587 33 L 586 33 L 578 41 L 578 42 L 576 44 L 576 45 L 574 47 L 574 48 L 572 50 L 572 51 L 571 52 L 571 53 L 570 54 L 570 55 L 569 56 L 569 57 L 568 58 L 568 60 L 567 61 L 567 63 L 566 64 L 566 67 L 565 68 L 565 71 L 564 72 L 564 78 L 563 79 L 563 98 L 564 99 L 564 105 L 565 106 L 565 111 L 566 112 L 566 115 L 567 116 L 567 120 L 568 121 L 568 123 L 569 124 L 569 126 L 570 127 L 570 129 L 571 130 L 571 132 L 572 133 L 572 135 L 573 136 L 573 138 L 574 139 L 574 141 L 575 142 L 575 143 L 576 144 L 576 146 L 577 147 L 577 148 L 578 149 L 578 151 L 579 152 L 579 153 L 580 154 L 580 156 L 581 157 L 581 158 L 582 159 L 582 161 L 583 162 L 583 164 L 584 165 L 584 166 L 585 167 L 585 169 L 586 170 L 586 171 L 587 172 L 587 174 L 588 175 L 588 177 L 589 178 L 589 180 L 590 181 L 590 183 L 591 184 L 591 186 L 592 187 L 592 189 L 593 190 L 593 192 L 594 193 L 594 195 L 595 196 L 595 199 L 596 200 L 596 202 L 597 203 L 597 206 L 598 207 L 598 209 L 599 210 L 599 213 L 600 214 L 600 216 L 601 217 L 601 220 L 602 221 L 602 225 L 603 226 L 603 230 L 604 231 L 604 236 L 605 237 L 605 241 L 606 242 L 606 246 L 607 247 L 607 253 L 608 254 L 608 261 L 609 262 L 609 279 L 610 280 L 610 298 L 609 299 L 609 316 L 608 317 L 608 325 L 607 326 L 607 334 L 606 335 L 606 342 L 605 343 L 605 361 L 606 362 L 606 363 L 607 364 L 607 365 L 609 367 L 609 368 L 612 371 L 613 371 L 614 372 L 615 372 L 616 373 L 617 373 L 618 374 L 630 374 L 631 373 L 632 373 L 633 372 L 634 372 L 635 371 L 636 371 L 641 366 L 641 365 L 642 364 L 642 363 L 643 362 L 643 359 L 644 358 L 644 340 L 643 339 L 643 330 L 642 329 L 642 319 L 641 318 L 641 307 L 640 306 L 640 260 L 641 259 L 641 250 L 642 249 L 642 241 L 643 240 L 643 234 L 644 233 L 644 229 L 645 228 L 645 224 L 646 223 L 646 219 L 647 218 L 647 215 L 648 214 L 648 211 L 649 210 L 649 208 L 650 207 L 650 205 L 651 204 L 651 201 L 652 200 L 652 198 L 653 197 L 653 195 L 654 194 L 654 192 L 655 191 L 655 189 L 656 188 L 656 186 L 657 185 L 657 183 L 658 182 L 658 180 L 659 179 L 659 177 L 660 176 L 660 175 L 661 174 L 661 172 L 662 171 L 662 170 L 663 169 L 663 167 L 664 166 L 664 165 L 665 164 L 665 162 L 666 161 L 666 160 L 667 159 L 667 158 L 668 157 L 668 156 L 669 155 L 669 153 L 670 152 L 670 151 L 671 150 L 671 149 L 672 148 L 672 146 L 673 145 L 673 144 L 674 143 L 674 142 L 675 141 L 675 140 L 676 139 L 676 137 L 677 136 L 677 135 L 678 134 L 678 133 L 679 132 L 679 130 L 680 129 L 680 128 L 681 127 L 681 125 L 682 124 L 682 122 L 683 121 L 683 119 L 684 118 L 684 115 L 685 114 L 685 112 L 686 111 L 686 109 L 687 108 L 687 105 L 688 104 L 688 99 L 689 98 L 689 74 L 688 73 L 688 68 L 687 67 L 687 64 L 686 63 L 686 61 L 685 60 L 685 58 L 684 57 L 684 56 L 683 55 L 683 54 L 682 53 L 682 52 L 681 51 L 681 50 L 680 49 L 680 48 L 677 45 L 677 44 L 675 42 L 675 41 L 665 31 L 664 31 L 662 29 L 661 29 L 659 27 L 658 27 L 656 25 L 655 25 L 654 24 L 653 24 L 652 23 L 650 23 L 649 22 L 648 22 L 647 21 L 646 21 L 645 20 L 643 20 L 642 19 L 639 19 L 638 18 L 632 18 L 631 17 Z" fill="#000000" fill-rule="evenodd"/>
</svg>
